<svg width="367" height="111" viewBox="0 0 367 111" fill="none" xmlns="http://www.w3.org/2000/svg">
<g clip-path="url(#clip0_203_648)">
<path d="M118.623 72.772C126.835 67.6917 129.936 57.8633 125.55 50.8198C121.165 43.7763 110.953 42.1848 102.742 47.2652C94.5307 52.3455 91.4294 62.1739 95.8149 69.2174C100.2 76.2609 110.412 77.8524 118.623 72.772Z" fill="#684221"/>
<path d="M117.058 70.5618C123.361 66.662 125.698 59.0481 122.278 53.5556C118.859 48.0632 110.977 46.7721 104.674 50.6719C98.3705 54.5716 96.0331 62.1856 99.4529 67.678C102.873 73.1705 110.755 74.4616 117.058 70.5618Z" fill="#FFDDBE"/>
<path d="M14.8677 72.9529C6.65651 67.8726 3.55516 58.0442 7.94067 51.0007C12.3262 43.9572 22.5379 42.3657 30.7491 47.4461C38.9603 52.5264 42.0617 62.3548 37.6761 69.3983C33.2906 76.4419 23.079 78.0333 14.8677 72.9529Z" fill="#684221"/>
<path d="M16.8985 70.562C10.5954 66.6623 8.25797 59.0483 11.6777 53.5559C15.0975 48.0634 22.9795 46.7723 29.2825 50.6721C35.5856 54.5719 37.923 62.1858 34.5033 67.6783C31.0835 73.1707 23.2016 74.4618 16.8985 70.562Z" fill="#FFDDBE"/>
<path d="M66.5341 107.89C90.9461 107.89 110.736 89.7869 110.736 67.456C110.736 45.1251 90.9461 27.0223 66.5341 27.0223C42.1222 27.0223 22.3323 45.1251 22.3323 67.456C22.3323 89.7869 42.1222 107.89 66.5341 107.89Z" fill="url(#paint0_linear_203_648)"/>
<path fill-rule="evenodd" clip-rule="evenodd" d="M91.0523 89.0873C100.08 86.1028 106.576 77.7778 106.576 67.9744C106.576 55.6638 96.3316 45.6842 83.6948 45.6842C76.861 45.6842 70.7267 48.6026 66.5342 53.2305C62.3416 48.6026 56.2073 45.6842 49.3732 45.6842C36.7366 45.6842 26.4925 55.6638 26.4925 67.9744C26.4925 77.9411 33.2073 86.3805 42.4702 89.2324C43.429 101.409 53.9356 111 66.7556 111C79.6265 111 90.1656 101.333 91.0523 89.0873Z" fill="url(#paint1_linear_203_648)"/>
<path d="M79.5347 96.1284C79.5347 97.6587 73.9472 101.669 67.0542 101.669C60.1613 101.669 54.5737 97.6587 54.5737 96.1284C54.5737 94.5985 60.1613 96.1284 67.0542 96.1284C73.9472 96.1284 79.5347 94.5985 79.5347 96.1284Z" fill="#806043"/>
<path d="M85.8901 71.6034C88.443 71.6034 90.5125 69.2825 90.5125 66.4196C90.5125 63.5567 88.443 61.2358 85.8901 61.2358C83.3372 61.2358 81.2677 63.5567 81.2677 66.4196C81.2677 69.2825 83.3372 71.6034 85.8901 71.6034Z" fill="#806043"/>
<path d="M47.7555 71.6034C50.3083 71.6034 52.3779 69.2825 52.3779 66.4196C52.3779 63.5567 50.3083 61.2358 47.7555 61.2358C45.2026 61.2358 43.1331 63.5567 43.1331 66.4196C43.1331 69.2825 45.2026 71.6034 47.7555 71.6034Z" fill="#806043"/>
<path fill-rule="evenodd" clip-rule="evenodd" d="M67.0542 79.9462C65.0595 78.7044 62.6798 78.4862 61.4933 79.5093C60.1855 80.6367 60.8227 82.8455 62.9167 84.4423C64.2087 85.428 65.7535 85.9502 67.0542 85.9406C68.355 85.9502 69.8997 85.428 71.1921 84.4423C73.2857 82.8455 73.923 80.6367 72.6155 79.5093C71.429 78.4862 69.049 78.7044 67.0542 79.9462Z" fill="#684221"/>
<path d="M154.826 61.9974C151.504 61.9974 149.085 61.3327 147.568 60.0032C146.051 58.6475 145.385 56.7705 145.568 54.3717C145.62 53.9285 145.803 53.7069 146.117 53.7069H149.804C150.144 53.7069 150.301 53.9028 150.275 54.2935C150.275 55.5711 150.667 56.5098 151.452 57.1093C152.236 57.6826 153.439 57.9694 155.061 57.9694C156.656 57.9694 157.833 57.7221 158.592 57.2265C159.376 56.7052 159.768 55.9099 159.768 54.8411C159.768 54.3459 159.677 53.9156 159.494 53.5506C159.311 53.1594 158.997 52.8206 158.552 52.5337C158.108 52.2211 157.506 51.9081 156.748 51.5954L151.06 49.1709C149.804 48.6234 148.797 48.0368 148.039 47.4111C147.28 46.7593 146.745 46.0163 146.431 45.1824C146.117 44.348 145.96 43.3964 145.96 42.3276C145.986 40.1116 146.731 38.417 148.196 37.2439C149.661 36.0707 151.844 35.4842 154.747 35.4842C156.787 35.4842 158.513 35.771 159.925 36.3445C161.364 36.892 162.436 37.7132 163.142 38.8081C163.848 39.877 164.123 41.2196 163.966 42.836C163.913 43.3054 163.757 43.5398 163.495 43.5398H159.768C159.611 43.5398 159.494 43.4875 159.415 43.3835C159.337 43.2792 159.311 43.0967 159.337 42.836C159.415 41.7929 159.036 40.9719 158.199 40.3723C157.388 39.7466 156.225 39.4338 154.708 39.4338C153.374 39.4338 152.367 39.6684 151.687 40.1377C151.007 40.6069 150.667 41.3108 150.667 42.2494C150.667 42.7445 150.759 43.1877 150.942 43.5789C151.125 43.9439 151.439 44.2828 151.883 44.5958C152.354 44.9084 152.982 45.2344 153.766 45.5732L159.376 47.9586C160.658 48.48 161.664 49.0666 162.397 49.7184C163.155 50.3441 163.691 51.0741 164.005 51.9081C164.345 52.7424 164.502 53.7331 164.476 54.8801C164.476 57.1484 163.704 58.9081 162.161 60.1595C160.618 61.3846 158.173 61.9974 154.826 61.9974ZM169.272 61.5281C168.984 61.5281 168.84 61.3718 168.84 61.0587V42.7578C168.84 42.4448 168.984 42.2885 169.272 42.2885H172.999C173.312 42.2885 173.47 42.4448 173.47 42.7578V61.0587C173.47 61.3718 173.312 61.5281 172.999 61.5281H169.272ZM171.155 39.512C170.266 39.512 169.586 39.2774 169.115 38.8081C168.671 38.3388 168.448 37.7392 168.448 37.0093V36.4227C168.448 35.6667 168.671 35.067 169.115 34.6239C169.586 34.1546 170.266 33.92 171.155 33.92C172.044 33.92 172.711 34.1546 173.156 34.6239C173.6 35.067 173.822 35.6667 173.822 36.4227V37.0093C173.822 37.7392 173.6 38.3388 173.156 38.8081C172.711 39.2774 172.044 39.512 171.155 39.512ZM185.164 61.9974C182.575 61.9974 180.666 61.489 179.437 60.4721C178.234 59.4557 177.671 57.8784 177.75 55.7407C177.75 55.4538 177.907 55.3104 178.221 55.3104H181.751C182.013 55.3104 182.144 55.4538 182.144 55.7407C182.144 56.679 182.392 57.3699 182.889 57.8131C183.386 58.2563 184.144 58.4779 185.164 58.4779C186.237 58.4779 187.034 58.3082 187.557 57.9694C188.08 57.6306 188.342 57.1093 188.342 56.4054C188.342 55.9099 188.172 55.4929 187.832 55.1541C187.492 54.7891 186.943 54.4503 186.184 54.1372L181.712 52.2602C180.352 51.6865 179.372 51.0089 178.77 50.2269C178.195 49.4445 177.907 48.428 177.907 47.1766C177.907 45.404 178.482 44.0741 179.633 43.1877C180.81 42.2756 182.614 41.8191 185.046 41.8191C187.531 41.8191 189.401 42.2885 190.656 43.2268C191.911 44.1655 192.539 45.5341 192.539 47.333C192.539 47.6198 192.382 47.7632 192.069 47.7632H188.538C188.224 47.7632 188.067 47.5545 188.067 47.1376C188.067 46.5639 187.819 46.1207 187.322 45.8081C186.825 45.4688 186.132 45.2996 185.243 45.2996C184.327 45.2996 183.647 45.4559 183.203 45.769C182.758 46.0816 182.536 46.551 182.536 47.1766C182.536 47.646 182.667 48.0106 182.928 48.2717C183.216 48.5323 183.765 48.8321 184.576 49.1709L189.048 51.0479C190.434 51.6216 191.428 52.3122 192.029 53.1203C192.657 53.9028 192.971 54.9325 192.971 56.2096C192.971 58.1129 192.304 59.5596 190.97 60.5503C189.636 61.5152 187.701 61.9974 185.164 61.9974ZM204.57 61.9974C203.053 61.9974 201.837 61.7626 200.922 61.2936C200.033 60.8242 199.379 60.0942 198.96 59.1035C198.568 58.1129 198.372 56.8486 198.372 55.3104V46.1598H195.508C195.194 46.1598 195.037 46.0035 195.037 45.6904V42.7578C195.037 42.4448 195.194 42.2885 195.508 42.2885H198.529L199.039 37.5959C199.091 37.3091 199.261 37.1657 199.549 37.1657H202.53C202.844 37.1657 203.001 37.3221 203.001 37.635V42.2885H208.375C208.689 42.2885 208.846 42.4448 208.846 42.7578V45.6904C208.846 46.0035 208.689 46.1598 208.375 46.1598H203.001V55.0759C203.001 56.1186 203.197 56.8744 203.589 57.3438C203.982 57.8131 204.635 58.0476 205.55 58.0476C206.021 58.0476 206.492 57.9956 206.963 57.8913C207.46 57.7869 207.917 57.6435 208.336 57.461C208.702 57.3309 208.885 57.4481 208.885 57.8131V60.8242C208.885 61.0849 208.767 61.2545 208.532 61.3327C208.009 61.541 207.408 61.6977 206.727 61.8016C206.073 61.9322 205.354 61.9974 204.57 61.9974ZM220.093 61.9974C217.269 61.9974 215.15 61.3846 213.738 60.1595C212.326 58.9081 211.62 57.0569 211.62 54.6066V49.7575C211.62 47.1505 212.313 45.1824 213.699 43.8525C215.111 42.4972 217.23 41.8191 220.054 41.8191C222.826 41.8191 224.918 42.471 226.331 43.7743C227.743 45.078 228.449 46.9808 228.449 49.484V52.5337C228.449 52.8468 228.292 53.0031 227.978 53.0031H216.21V54.1763C216.21 55.6102 216.51 56.6661 217.112 57.3438C217.74 57.9956 218.747 58.3216 220.132 58.3216C221.205 58.3216 222.029 58.1519 222.604 57.8131C223.206 57.4743 223.506 56.9659 223.506 56.2882C223.506 55.9752 223.663 55.8189 223.977 55.8189H227.586C227.874 55.8189 228.03 55.9623 228.057 56.2487C228.135 58.1257 227.482 59.5596 226.095 60.5503C224.735 61.5152 222.735 61.9974 220.093 61.9974ZM216.21 49.8747H223.898V49.6793C223.898 48.2455 223.585 47.1895 222.957 46.5119C222.329 45.8338 221.375 45.495 220.093 45.495C218.76 45.495 217.779 45.8471 217.151 46.551C216.524 47.2286 216.21 48.2846 216.21 49.7184V49.8747ZM233.363 61.5281C233.076 61.5281 232.932 61.3718 232.932 61.0587V47.1766C232.932 46.4204 232.906 45.6646 232.854 44.9084C232.827 44.1526 232.762 43.4484 232.657 42.7969C232.605 42.4577 232.762 42.2885 233.128 42.2885H236.423C236.685 42.2885 236.842 42.4057 236.894 42.6402C236.946 43.0052 237.012 43.3964 237.09 43.8134C237.169 44.2308 237.221 44.674 237.247 45.1429C238.267 44.1002 239.287 43.2921 240.307 42.7188C241.327 42.1189 242.491 41.8191 243.798 41.8191C245.184 41.8191 246.257 42.106 247.015 42.6797C247.8 43.253 248.362 44.1002 248.702 45.2215C249.774 44.1526 250.833 43.3183 251.879 42.7188C252.951 42.1189 254.155 41.8191 255.488 41.8191C257.267 41.8191 258.6 42.3538 259.49 43.4226C260.405 44.4653 260.863 46.0687 260.863 48.2322V61.0587C260.863 61.3718 260.719 61.5281 260.431 61.5281H256.704C256.391 61.5281 256.234 61.3718 256.234 61.0587V49.0146C256.234 47.9457 256.038 47.1505 255.645 46.6291C255.279 46.0816 254.665 45.8081 253.801 45.8081C253.069 45.8081 252.337 46.0296 251.605 46.4728C250.899 46.8898 250.101 47.5155 249.212 48.3498V61.0587C249.212 61.3718 249.055 61.5281 248.741 61.5281H245.053C244.74 61.5281 244.583 61.3718 244.583 61.0587V49.0146C244.583 47.9457 244.387 47.1505 243.995 46.6291C243.602 46.0816 242.987 45.8081 242.151 45.8081C241.418 45.8081 240.686 46.0296 239.954 46.4728C239.248 46.8898 238.45 47.5155 237.561 48.3498V61.0587C237.561 61.3718 237.404 61.5281 237.09 61.5281H233.363ZM277.215 61.5281C277.058 61.5281 276.94 61.489 276.862 61.4108C276.809 61.3065 276.757 61.176 276.705 61.0196C276.653 60.759 276.587 60.3158 276.509 59.6901C276.43 59.0383 276.365 58.4388 276.313 57.8913L276.038 56.2882V48.4671C276.038 47.372 275.816 46.6029 275.371 46.1598C274.926 45.6904 274.155 45.4559 273.057 45.4559C271.069 45.4559 270.102 46.1731 270.154 47.6065C270.154 47.9196 270.01 48.0759 269.722 48.0759H266.192C265.878 48.0759 265.708 47.8414 265.682 47.372C265.525 45.6256 266.113 44.2699 267.447 43.3054C268.807 42.3147 270.742 41.8191 273.253 41.8191C275.816 41.8191 277.686 42.3666 278.862 43.4617C280.066 44.5567 280.667 46.2512 280.667 48.5452V56.679C280.667 57.5134 280.68 58.2954 280.706 59.0254C280.758 59.7554 280.824 60.4202 280.902 61.0196C280.955 61.3585 280.811 61.5281 280.471 61.5281H277.215ZM269.722 61.9974C268.153 61.9974 266.95 61.5281 266.113 60.5894C265.276 59.6511 264.858 58.3082 264.858 56.5618C264.858 55.2061 265.12 54.111 265.643 53.2771C266.166 52.4165 267.015 51.7518 268.192 51.2824C269.395 50.7873 270.991 50.4613 272.978 50.305L276.626 49.992V52.8077L273.37 53.0813C271.854 53.2118 270.808 53.4987 270.232 53.9418C269.657 54.385 269.369 55.1017 269.369 56.0924C269.369 56.8486 269.526 57.4219 269.84 57.8131C270.154 58.1781 270.638 58.3606 271.291 58.3606C272.076 58.3606 272.874 58.1129 273.684 57.6177C274.495 57.096 275.515 56.1839 276.744 54.8801L276.901 58.0085C276.117 58.8691 275.345 59.5991 274.587 60.1986C273.828 60.7981 273.057 61.2412 272.272 61.5281C271.487 61.8411 270.638 61.9974 269.722 61.9974ZM294.437 61.5281C294.15 61.5281 294.006 61.3718 294.006 61.0587V36.3836C294.006 36.0707 294.15 35.9143 294.437 35.9143H298.243C298.557 35.9143 298.713 36.0707 298.713 36.3836V43.1096C298.713 43.8658 298.701 44.6349 298.674 45.4169C298.674 46.1989 298.648 46.9808 298.596 47.7632H298.674C299.197 47.0594 299.734 46.3552 300.283 45.6513C300.832 44.9475 301.394 44.2437 301.969 43.5398L308.324 36.149C308.455 35.9925 308.638 35.9143 308.873 35.9143H313.62C313.803 35.9143 313.921 35.9665 313.974 36.0707C314.052 36.1751 314.026 36.3054 313.895 36.4618L305.265 46.3161L314.68 60.9806C314.784 61.1369 314.81 61.2674 314.758 61.3718C314.705 61.4761 314.588 61.5281 314.405 61.5281H309.698C309.462 61.5281 309.279 61.4237 309.148 61.215L302.008 49.9529L298.713 53.6679V61.0587C298.713 61.3718 298.557 61.5281 298.243 61.5281H294.437ZM318.343 61.5281C318.055 61.5281 317.911 61.3718 317.911 61.0587V36.3836C317.911 36.0707 318.055 35.9143 318.343 35.9143H326.267C330.32 35.9143 333.341 36.8529 335.328 38.7299C337.316 40.6069 338.31 43.4226 338.31 47.1766V49.523C338.31 53.5115 337.316 56.5098 335.328 58.5169C333.367 60.5245 330.346 61.5281 326.267 61.5281H318.343ZM322.618 57.5001H325.953C328.594 57.5001 330.529 56.8486 331.759 55.5449C332.988 54.2154 333.602 52.2211 333.602 49.5621V47.1376C333.602 44.713 332.988 42.9142 331.759 41.741C330.529 40.5418 328.594 39.9422 325.953 39.9422H322.618V57.5001ZM343.818 61.5281C343.53 61.5281 343.387 61.3718 343.387 61.0587V36.3836C343.387 36.0707 343.53 35.9143 343.818 35.9143H358.843C359.13 35.9143 359.274 36.0707 359.274 36.3836V39.5902C359.274 39.903 359.13 40.0595 358.843 40.0595H348.094V46.5901H357.901C358.189 46.5901 358.333 46.7464 358.333 47.0594V50.0701C358.333 50.3832 358.189 50.5395 357.901 50.5395H348.094V57.3828H358.843C359.13 57.3828 359.274 57.5396 359.274 57.8522V61.0587C359.274 61.3718 359.13 61.5281 358.843 61.5281H343.818ZM346.172 33.6071C345.858 33.7375 345.701 33.6462 345.701 33.3334V30.8698C345.701 30.6352 345.806 30.4788 346.015 30.4006L351.036 28.0933C351.272 27.9891 351.494 27.9891 351.703 28.0933L356.724 30.4006C356.933 30.4788 357.038 30.6352 357.038 30.8698V33.3334C357.038 33.6462 356.881 33.7375 356.567 33.6071L351.389 31.6519L346.172 33.6071Z" fill="#C6AC8F"/>
<path d="M143.881 70.882C143.305 70.882 142.838 71.3472 142.838 71.9213C142.838 72.4954 143.305 72.9606 143.881 72.9606V70.882ZM367 71.9213L356.574 65.9207V77.922L367 71.9213ZM143.881 72.9606H357.616V70.882H143.881V72.9606Z" fill="#C6AC8F"/>
<path d="M145.465 97.6966C145.354 97.6966 145.299 97.6413 145.299 97.5303V86.9707C145.299 86.8597 145.354 86.8044 145.465 86.8044H148.251C149.597 86.8044 150.609 87.0925 151.287 87.6692C151.966 88.2346 152.305 89.0772 152.305 90.1968C152.305 91.3056 151.96 92.1478 151.271 92.7244C150.592 93.3011 149.586 93.5892 148.251 93.5892H146.717V97.5303C146.717 97.6413 146.661 97.6966 146.55 97.6966H145.465ZM146.717 92.3919H148.218C149.152 92.3919 149.831 92.2202 150.253 91.8763C150.676 91.5217 150.887 90.9784 150.887 90.2467C150.887 89.4597 150.665 88.8885 150.22 88.5339C149.786 88.1793 149.108 88.0017 148.185 88.0017H146.717V92.3919ZM158.699 97.6966C158.632 97.6966 158.587 97.6745 158.565 97.6301C158.543 97.5856 158.521 97.5303 158.499 97.4638C158.487 97.3752 158.46 97.1865 158.415 96.8984C158.382 96.599 158.36 96.333 158.348 96.1002L158.298 95.4683V92.159C158.298 91.6049 158.187 91.2112 157.965 90.9784C157.742 90.7456 157.353 90.6292 156.797 90.6292C155.796 90.6292 155.296 90.973 155.296 91.6602C155.296 91.7712 155.246 91.8265 155.146 91.8265H154.045C153.933 91.8265 153.872 91.7213 153.861 91.5105C153.806 90.8786 154.05 90.3685 154.595 89.9806C155.151 89.5815 155.902 89.382 156.847 89.382C157.815 89.382 158.532 89.6094 158.999 90.0638C159.477 90.5182 159.716 91.2058 159.716 92.1258V95.6844C159.716 96.0723 159.728 96.4215 159.75 96.7321C159.772 97.0314 159.8 97.2921 159.833 97.5136C159.855 97.6355 159.8 97.6966 159.666 97.6966H158.699ZM155.513 97.8961C154.867 97.8961 154.373 97.702 154.028 97.3141C153.694 96.9262 153.527 96.3608 153.527 95.6179C153.527 95.0413 153.639 94.5703 153.861 94.2044C154.095 93.8386 154.462 93.5559 154.962 93.3563C155.474 93.1568 156.152 93.0238 156.997 92.9572L158.565 92.8242V93.9051L156.964 94.0381C156.196 94.1047 155.668 94.2431 155.379 94.4539C155.09 94.6646 154.945 95.0193 154.945 95.5181C154.945 95.8952 155.023 96.1779 155.179 96.3662C155.334 96.5546 155.568 96.6489 155.88 96.6489C156.247 96.6489 156.63 96.5271 157.031 96.2831C157.431 96.0282 157.959 95.5626 158.615 94.8862V96.1334C158.226 96.5546 157.859 96.8984 157.514 97.1644C157.181 97.4193 156.852 97.6022 156.53 97.7132C156.208 97.835 155.868 97.8961 155.513 97.8961ZM162.388 97.6966C162.277 97.6966 162.221 97.6413 162.221 97.5303V91.5604C162.221 91.2498 162.21 90.9505 162.188 90.6624C162.176 90.3631 162.149 90.0638 162.104 89.7644C162.082 89.6426 162.138 89.5815 162.271 89.5815H163.289C163.4 89.5815 163.461 89.6314 163.472 89.7312C163.516 89.942 163.55 90.1856 163.572 90.4629C163.594 90.7289 163.606 90.9563 163.606 91.1447L163.639 92.026V97.5303C163.639 97.6413 163.583 97.6966 163.472 97.6966H162.388ZM163.456 92.5249L163.422 91.1613C163.656 90.8175 163.923 90.5128 164.223 90.2467C164.534 89.9806 164.846 89.7698 165.157 89.6148C165.479 89.4597 165.774 89.382 166.041 89.382C166.241 89.382 166.392 89.3986 166.492 89.4318C166.58 89.4539 166.631 89.5096 166.642 89.5981C166.664 89.831 166.669 90.0692 166.658 90.3132C166.658 90.5572 166.642 90.79 166.608 91.0116C166.586 91.1334 166.514 91.1779 166.392 91.1447C166.302 91.1226 166.208 91.106 166.108 91.0948C166.008 91.0835 165.902 91.0781 165.791 91.0781C165.513 91.0781 165.235 91.1393 164.957 91.2611C164.679 91.3829 164.412 91.555 164.156 91.7766C163.9 91.9873 163.667 92.2368 163.456 92.5249ZM172.725 97.6966C172.658 97.6966 172.614 97.6745 172.592 97.6301C172.569 97.5856 172.547 97.5303 172.525 97.4638C172.514 97.3752 172.486 97.1865 172.442 96.8984C172.408 96.599 172.386 96.333 172.375 96.1002L172.325 95.4683V92.159C172.325 91.6049 172.214 91.2112 171.991 90.9784C171.769 90.7456 171.379 90.6292 170.823 90.6292C169.823 90.6292 169.322 90.973 169.322 91.6602C169.322 91.7712 169.272 91.8265 169.172 91.8265H168.071C167.96 91.8265 167.898 91.7213 167.887 91.5105C167.832 90.8786 168.076 90.3685 168.621 89.9806C169.177 89.5815 169.928 89.382 170.874 89.382C171.841 89.382 172.558 89.6094 173.025 90.0638C173.503 90.5182 173.743 91.2058 173.743 92.1258V95.6844C173.743 96.0723 173.754 96.4215 173.776 96.7321C173.798 97.0314 173.826 97.2921 173.86 97.5136C173.882 97.6355 173.826 97.6966 173.693 97.6966H172.725ZM169.539 97.8961C168.894 97.8961 168.399 97.702 168.054 97.3141C167.721 96.9262 167.554 96.3608 167.554 95.6179C167.554 95.0413 167.665 94.5703 167.887 94.2044C168.121 93.8386 168.488 93.5559 168.988 93.3563C169.5 93.1568 170.178 93.0238 171.024 92.9572L172.592 92.8242V93.9051L170.99 94.0381C170.223 94.1047 169.695 94.2431 169.406 94.4539C169.116 94.6646 168.972 95.0193 168.972 95.5181C168.972 95.8952 169.049 96.1779 169.205 96.3662C169.361 96.5546 169.594 96.6489 169.906 96.6489C170.273 96.6489 170.657 96.5271 171.057 96.2831C171.457 96.0282 171.985 95.5626 172.642 94.8862V96.1334C172.252 96.5546 171.885 96.8984 171.541 97.1644C171.207 97.4193 170.879 97.6022 170.557 97.7132C170.234 97.835 169.895 97.8961 169.539 97.8961ZM180.084 97.6966C179.972 97.6966 179.917 97.6413 179.917 97.5303V86.9707C179.917 86.8597 179.972 86.8044 180.084 86.8044H181.168C181.279 86.8044 181.335 86.8597 181.335 86.9707V97.5303C181.335 97.6413 181.279 97.6966 181.168 97.6966H180.084ZM189.523 97.6966C189.412 97.6966 189.357 97.6413 189.357 97.5303V92.2256C189.357 91.6714 189.24 91.2665 189.006 91.0116C188.784 90.7568 188.444 90.6292 187.989 90.6292C187.555 90.6292 187.127 90.7568 186.704 91.0116C186.282 91.2665 185.753 91.7046 185.119 92.3253L185.136 91.0449C185.514 90.6458 185.87 90.3244 186.204 90.0804C186.549 89.8364 186.888 89.6593 187.221 89.5483C187.566 89.4373 187.927 89.382 188.306 89.382C189.106 89.382 189.718 89.6148 190.141 90.0804C190.563 90.546 190.775 91.239 190.775 92.159V97.5303C190.775 97.6413 190.719 97.6966 190.608 97.6966H189.523ZM184.169 97.6966C184.057 97.6966 184.002 97.6413 184.002 97.5303V91.6103C184.002 91.3222 183.985 91.0004 183.952 90.6458C183.93 90.2799 183.907 89.9972 183.885 89.7977C183.863 89.6534 183.918 89.5815 184.052 89.5815H185.069C185.169 89.5815 185.231 89.6368 185.253 89.7478C185.275 89.8364 185.297 89.9752 185.32 90.1635C185.342 90.3519 185.364 90.5514 185.386 90.7622C185.408 90.9617 185.42 91.1334 185.42 91.2777V91.7101V97.5303C185.42 97.6413 185.364 97.6966 185.253 97.6966H184.169ZM195.292 97.6966C195.191 97.6966 195.125 97.6521 195.091 97.5635L192.372 89.7644C192.339 89.6426 192.383 89.5815 192.506 89.5815H193.657C193.757 89.5815 193.824 89.626 193.857 89.7146L195.342 94.3707C195.464 94.7478 195.586 95.1303 195.709 95.5181C195.831 95.8952 195.948 96.2777 196.059 96.6656H196.092C196.204 96.2777 196.32 95.8952 196.443 95.5181C196.565 95.1411 196.687 94.7644 196.81 94.3874L198.294 89.7146C198.328 89.626 198.394 89.5815 198.494 89.5815H199.645C199.768 89.5815 199.812 89.6426 199.779 89.7644L197.043 97.5635C197.01 97.6521 196.943 97.6966 196.843 97.6966H195.292ZM204.406 97.8961C203.338 97.8961 202.515 97.6467 201.937 97.1478C201.37 96.6489 201.086 95.9118 201.086 94.9361V92.608C201.086 91.555 201.37 90.7568 201.937 90.2134C202.504 89.6593 203.327 89.382 204.406 89.382C205.484 89.382 206.302 89.6534 206.858 90.1968C207.425 90.7289 207.709 91.5051 207.709 92.5249V93.822C207.709 93.933 207.653 93.9883 207.542 93.9883H202.504V94.5204C202.504 95.2633 202.659 95.8062 202.971 96.1501C203.282 96.4826 203.788 96.6489 204.489 96.6489C205.012 96.6489 205.412 96.5658 205.69 96.3995C205.979 96.222 206.124 95.9671 206.124 95.6345C206.124 95.5127 206.185 95.4516 206.307 95.4516H207.392C207.481 95.4516 207.536 95.5015 207.559 95.6013C207.603 96.3109 207.342 96.8705 206.774 97.2808C206.207 97.6912 205.417 97.8961 204.406 97.8961ZM202.504 92.7743H206.291V92.6745C206.291 91.9761 206.135 91.4606 205.824 91.128C205.512 90.7954 205.045 90.6292 204.422 90.6292C203.777 90.6292 203.293 90.8009 202.971 91.1447C202.659 91.4885 202.504 92.004 202.504 92.6912V92.7743ZM215.475 97.6966C215.364 97.6966 215.308 97.6413 215.308 97.5303V92.2256C215.308 91.6714 215.191 91.2665 214.958 91.0116C214.735 90.7568 214.396 90.6292 213.94 90.6292C213.506 90.6292 213.078 90.7568 212.656 91.0116C212.233 91.2665 211.705 91.7046 211.071 92.3253L211.088 91.0449C211.465 90.6458 211.822 90.3244 212.155 90.0804C212.5 89.8364 212.839 89.6593 213.173 89.5483C213.517 89.4373 213.879 89.382 214.257 89.382C215.058 89.382 215.669 89.6148 216.092 90.0804C216.515 90.546 216.726 91.239 216.726 92.159V97.5303C216.726 97.6413 216.67 97.6966 216.559 97.6966H215.475ZM210.12 97.6966C210.009 97.6966 209.953 97.6413 209.953 97.5303V91.6103C209.953 91.3222 209.937 91.0004 209.903 90.6458C209.881 90.2799 209.859 89.9972 209.836 89.7977C209.814 89.6534 209.87 89.5815 210.003 89.5815H211.021C211.121 89.5815 211.182 89.6368 211.204 89.7478C211.226 89.8364 211.249 89.9752 211.271 90.1635C211.293 90.3519 211.315 90.5514 211.338 90.7622C211.36 90.9617 211.371 91.1334 211.371 91.2777V91.7101V97.5303C211.371 97.6413 211.315 97.6966 211.204 97.6966H210.12ZM222.238 97.8961C221.671 97.8961 221.215 97.8018 220.87 97.6134C220.537 97.4139 220.292 97.1199 220.136 96.7321C219.991 96.3442 219.919 95.8619 219.919 95.2853V90.7954H218.635C218.523 90.7954 218.468 90.7402 218.468 90.6292V89.7478C218.468 89.6368 218.523 89.5815 218.635 89.5815H219.953L220.136 87.586C220.147 87.475 220.208 87.4197 220.32 87.4197H221.154C221.265 87.4197 221.321 87.475 221.321 87.586L221.337 89.5815H223.823C223.934 89.5815 223.99 89.6368 223.99 89.7478V90.6292C223.99 90.7402 223.934 90.7954 223.823 90.7954H221.337V95.2521C221.337 95.773 221.426 96.1388 221.604 96.3496C221.793 96.5604 222.11 96.6656 222.555 96.6656C222.777 96.6656 223 96.6435 223.222 96.599C223.445 96.5437 223.639 96.4772 223.806 96.3995C223.94 96.3442 224.006 96.3829 224.006 96.5159V97.4305C224.006 97.5191 223.962 97.5802 223.873 97.6134C223.673 97.6912 223.439 97.7577 223.172 97.813C222.905 97.8683 222.594 97.8961 222.238 97.8961ZM230.46 97.6966C230.393 97.6966 230.349 97.6745 230.326 97.6301C230.304 97.5856 230.282 97.5303 230.26 97.4638C230.249 97.3752 230.221 97.1865 230.176 96.8984C230.143 96.599 230.121 96.333 230.109 96.1002L230.059 95.4683V92.159C230.059 91.6049 229.948 91.2112 229.726 90.9784C229.503 90.7456 229.114 90.6292 228.558 90.6292C227.557 90.6292 227.057 90.973 227.057 91.6602C227.057 91.7712 227.007 91.8265 226.907 91.8265H225.805C225.695 91.8265 225.633 91.7213 225.622 91.5105C225.567 90.8786 225.811 90.3685 226.356 89.9806C226.912 89.5815 227.663 89.382 228.608 89.382C229.576 89.382 230.293 89.6094 230.76 90.0638C231.238 90.5182 231.477 91.2058 231.477 92.1258V95.6844C231.477 96.0723 231.489 96.4215 231.511 96.7321C231.533 97.0314 231.561 97.2921 231.594 97.5136C231.617 97.6355 231.561 97.6966 231.427 97.6966H230.46ZM227.274 97.8961C226.629 97.8961 226.134 97.702 225.789 97.3141C225.455 96.9262 225.288 96.3608 225.288 95.6179C225.288 95.0413 225.4 94.5703 225.622 94.2044C225.856 93.8386 226.223 93.5559 226.723 93.3563C227.235 93.1568 227.913 93.0238 228.758 92.9572L230.326 92.8242V93.9051L228.725 94.0381C227.957 94.1047 227.429 94.2431 227.14 94.4539C226.851 94.6646 226.706 95.0193 226.706 95.5181C226.706 95.8952 226.784 96.1779 226.94 96.3662C227.096 96.5546 227.329 96.6489 227.641 96.6489C228.008 96.6489 228.391 96.5271 228.792 96.2831C229.192 96.0282 229.72 95.5626 230.376 94.8862V96.1334C229.987 96.5546 229.62 96.8984 229.275 97.1644C228.942 97.4193 228.614 97.6022 228.291 97.7132C227.969 97.835 227.63 97.8961 227.274 97.8961ZM234.149 97.6966C234.038 97.6966 233.982 97.6413 233.982 97.5303V91.5604C233.982 91.2498 233.971 90.9505 233.949 90.6624C233.937 90.3631 233.91 90.0638 233.865 89.7644C233.843 89.6426 233.899 89.5815 234.032 89.5815H235.05C235.161 89.5815 235.222 89.6314 235.233 89.7312C235.278 89.942 235.311 90.1856 235.333 90.4629C235.355 90.7289 235.367 90.9563 235.367 91.1447L235.4 92.026V97.5303C235.4 97.6413 235.345 97.6966 235.233 97.6966H234.149ZM235.217 92.5249L235.183 91.1613C235.417 90.8175 235.684 90.5128 235.984 90.2467C236.295 89.9806 236.607 89.7698 236.918 89.6148C237.24 89.4597 237.535 89.382 237.802 89.382C238.002 89.382 238.153 89.3986 238.253 89.4318C238.341 89.4539 238.392 89.5096 238.403 89.5981C238.425 89.831 238.431 90.0692 238.419 90.3132C238.419 90.5572 238.403 90.79 238.369 91.0116C238.347 91.1334 238.275 91.1779 238.153 91.1447C238.064 91.1226 237.969 91.106 237.869 91.0948C237.769 91.0835 237.663 91.0781 237.552 91.0781C237.274 91.0781 236.996 91.1393 236.718 91.2611C236.44 91.3829 236.173 91.555 235.917 91.7766C235.662 91.9873 235.428 92.2368 235.217 92.5249ZM240.095 97.6966C239.984 97.6966 239.928 97.6413 239.928 97.5303V89.7478C239.928 89.6368 239.984 89.5815 240.095 89.5815H241.179C241.29 89.5815 241.346 89.6368 241.346 89.7478V97.5303C241.346 97.6413 241.29 97.6966 241.179 97.6966H240.095ZM240.646 88.2179C240.323 88.2179 240.089 88.1348 239.945 87.9685C239.8 87.791 239.728 87.5694 239.728 87.3033V87.137C239.728 86.871 239.8 86.6548 239.945 86.4885C240.089 86.311 240.323 86.2224 240.646 86.2224C240.968 86.2224 241.202 86.311 241.346 86.4885C241.491 86.6548 241.563 86.871 241.563 87.137V87.3033C241.563 87.5694 241.491 87.791 241.346 87.9685C241.202 88.1348 240.968 88.2179 240.646 88.2179ZM248.575 97.6966C248.509 97.6966 248.464 97.6745 248.442 97.6301C248.419 97.5856 248.397 97.5303 248.375 97.4638C248.364 97.3752 248.336 97.1865 248.292 96.8984C248.258 96.599 248.236 96.333 248.225 96.1002L248.175 95.4683V92.159C248.175 91.6049 248.064 91.2112 247.841 90.9784C247.619 90.7456 247.23 90.6292 246.674 90.6292C245.673 90.6292 245.172 90.973 245.172 91.6602C245.172 91.7712 245.122 91.8265 245.022 91.8265H243.921C243.81 91.8265 243.748 91.7213 243.738 91.5105C243.682 90.8786 243.927 90.3685 244.472 89.9806C245.028 89.5815 245.778 89.382 246.724 89.382C247.691 89.382 248.409 89.6094 248.876 90.0638C249.354 90.5182 249.593 91.2058 249.593 92.1258V95.6844C249.593 96.0723 249.604 96.4215 249.626 96.7321C249.648 97.0314 249.676 97.2921 249.71 97.5136C249.732 97.6355 249.676 97.6966 249.543 97.6966H248.575ZM245.389 97.8961C244.744 97.8961 244.249 97.702 243.904 97.3141C243.571 96.9262 243.404 96.3608 243.404 95.6179C243.404 95.0413 243.515 94.5703 243.738 94.2044C243.971 93.8386 244.338 93.5559 244.839 93.3563C245.35 93.1568 246.028 93.0238 246.874 92.9572L248.442 92.8242V93.9051L246.84 94.0381C246.073 94.1047 245.545 94.2431 245.256 94.4539C244.966 94.6646 244.822 95.0193 244.822 95.5181C244.822 95.8952 244.9 96.1779 245.055 96.3662C245.211 96.5546 245.445 96.6489 245.756 96.6489C246.123 96.6489 246.507 96.5271 246.907 96.2831C247.308 96.0282 247.836 95.5626 248.492 94.8862V96.1334C248.102 96.5546 247.735 96.8984 247.391 97.1644C247.057 97.4193 246.729 97.6022 246.407 97.7132C246.084 97.835 245.745 97.8961 245.389 97.8961ZM257.619 97.6966C257.508 97.6966 257.452 97.6413 257.452 97.5303V92.2256C257.452 91.6714 257.335 91.2665 257.102 91.0116C256.88 90.7568 256.541 90.6292 256.084 90.6292C255.651 90.6292 255.223 90.7568 254.8 91.0116C254.377 91.2665 253.849 91.7046 253.215 92.3253L253.232 91.0449C253.61 90.6458 253.966 90.3244 254.299 90.0804C254.644 89.8364 254.983 89.6593 255.317 89.5483C255.662 89.4373 256.023 89.382 256.401 89.382C257.202 89.382 257.814 89.6148 258.236 90.0804C258.659 90.546 258.87 91.239 258.87 92.159V97.5303C258.87 97.6413 258.815 97.6966 258.703 97.6966H257.619ZM252.264 97.6966C252.153 97.6966 252.097 97.6413 252.097 97.5303V91.6103C252.097 91.3222 252.081 91.0004 252.047 90.6458C252.025 90.2799 252.003 89.9972 251.981 89.7977C251.958 89.6534 252.014 89.5815 252.147 89.5815H253.165C253.265 89.5815 253.326 89.6368 253.348 89.7478C253.371 89.8364 253.393 89.9752 253.415 90.1635C253.438 90.3519 253.46 90.5514 253.482 90.7622C253.504 90.9617 253.515 91.1334 253.515 91.2777V91.7101V97.5303C253.515 97.6413 253.46 97.6966 253.348 97.6966H252.264ZM264.383 97.8961C263.815 97.8961 263.359 97.8018 263.015 97.6134C262.681 97.4139 262.436 97.1199 262.281 96.7321C262.136 96.3442 262.064 95.8619 262.064 95.2853V90.7954H260.779C260.668 90.7954 260.613 90.7402 260.613 90.6292V89.7478C260.613 89.6368 260.668 89.5815 260.779 89.5815H262.097L262.281 87.586C262.292 87.475 262.353 87.4197 262.464 87.4197H263.298C263.409 87.4197 263.465 87.475 263.465 87.586L263.482 89.5815H265.967C266.078 89.5815 266.134 89.6368 266.134 89.7478V90.6292C266.134 90.7402 266.078 90.7954 265.967 90.7954H263.482V95.2521C263.482 95.773 263.571 96.1388 263.749 96.3496C263.938 96.5604 264.255 96.6656 264.7 96.6656C264.922 96.6656 265.144 96.6435 265.367 96.599C265.589 96.5437 265.784 96.4772 265.951 96.3995C266.084 96.3442 266.151 96.3829 266.151 96.5159V97.4305C266.151 97.5191 266.106 97.5802 266.017 97.6134C265.817 97.6912 265.584 97.7577 265.317 97.813C265.05 97.8683 264.738 97.8961 264.383 97.8961ZM270.839 97.8961C269.772 97.8961 268.949 97.6467 268.37 97.1478C267.803 96.6489 267.52 95.9118 267.52 94.9361V92.608C267.52 91.555 267.803 90.7568 268.37 90.2134C268.938 89.6593 269.761 89.382 270.839 89.382C271.918 89.382 272.736 89.6534 273.292 90.1968C273.859 90.7289 274.142 91.5051 274.142 92.5249V93.822C274.142 93.933 274.087 93.9883 273.975 93.9883H268.938V94.5204C268.938 95.2633 269.094 95.8062 269.405 96.1501C269.716 96.4826 270.222 96.6489 270.923 96.6489C271.446 96.6489 271.846 96.5658 272.124 96.3995C272.413 96.222 272.558 95.9671 272.558 95.6345C272.558 95.5127 272.619 95.4516 272.741 95.4516H273.825C273.915 95.4516 273.97 95.5015 273.992 95.6013C274.037 96.3109 273.775 96.8705 273.208 97.2808C272.641 97.6912 271.851 97.8961 270.839 97.8961ZM268.938 92.7743H272.724V92.6745C272.724 91.9761 272.569 91.4606 272.257 91.128C271.946 90.7954 271.479 90.6292 270.856 90.6292C270.211 90.6292 269.727 90.8009 269.405 91.1447C269.094 91.4885 268.938 92.004 268.938 92.6912V92.7743ZM279.023 97.8961C278.022 97.8961 277.271 97.6799 276.771 97.2476C276.27 96.804 276.02 96.1446 276.02 95.2687C276.02 95.1689 276.076 95.119 276.187 95.119H277.288C277.388 95.119 277.438 95.1635 277.438 95.2521C277.438 95.7509 277.56 96.1114 277.805 96.333C278.061 96.5546 278.472 96.6656 279.04 96.6656C279.584 96.6656 279.996 96.577 280.274 96.3995C280.552 96.2112 280.691 95.9451 280.691 95.6013C280.691 95.3464 280.613 95.1357 280.458 94.9694C280.302 94.7919 280.057 94.6314 279.724 94.4871L277.822 93.7056C277.21 93.4507 276.776 93.1622 276.521 92.8408C276.265 92.5195 276.137 92.1038 276.137 91.5937C276.137 90.862 276.371 90.3132 276.838 89.9474C277.305 89.5703 278 89.382 278.923 89.382C279.868 89.382 280.602 89.5815 281.125 89.9806C281.647 90.3685 281.909 90.9231 281.909 91.6435C281.909 91.7433 281.853 91.7932 281.742 91.7932H280.641C280.53 91.7932 280.474 91.7047 280.474 91.5271C280.474 91.239 280.341 91.017 280.074 90.862C279.807 90.6957 279.44 90.6125 278.973 90.6125C278.495 90.6125 278.139 90.6957 277.905 90.862C277.672 91.017 277.555 91.2611 277.555 91.5937C277.555 91.8377 277.616 92.0206 277.738 92.1424C277.872 92.2642 278.133 92.4085 278.523 92.5748L280.424 93.373C281.014 93.617 281.442 93.9051 281.709 94.2377C281.976 94.5703 282.109 94.9972 282.109 95.5181C282.109 96.2831 281.842 96.8705 281.308 97.2808C280.775 97.6912 280.013 97.8961 279.023 97.8961Z" fill="#4182CE"/>
<path d="M93.6403 22.922L93.6467 22.6602L93.4352 22.5058C90.2644 20.1917 88.4966 17.4407 88.4966 14.5506C88.4966 10.8172 91.4569 7.31008 96.5311 4.70662C101.579 2.11667 108.587 0.5 116.356 0.5C124.124 0.5 131.132 2.11667 136.18 4.70662C141.254 7.31008 144.215 10.8172 144.215 14.5506C144.215 18.284 141.254 21.791 136.18 24.3945C131.132 26.9845 124.124 28.6011 116.356 28.6011C112.813 28.6011 109.426 28.2649 106.31 27.6523L105.947 27.581L105.773 27.9066C105.528 28.3628 105.148 28.7637 104.629 29.0457L97.6523 32.8362C95.7324 33.8792 93.4051 32.458 93.4589 30.2859L93.4589 30.2859L93.6403 22.922Z" fill="#F4F4F5" stroke="#4182CE"/>
<path d="M114.805 16.2301C114.682 16.2301 114.621 16.1636 114.621 16.0306V15.3821C114.621 15.0051 114.716 14.6781 114.905 14.4009C115.094 14.1238 115.322 13.8743 115.589 13.6526C115.867 13.4309 116.145 13.2203 116.423 13.0207C116.701 12.8101 116.935 12.5939 117.123 12.3722C117.313 12.1505 117.407 11.901 117.407 11.6239C117.407 11.3356 117.302 11.125 117.09 10.9919C116.879 10.8478 116.562 10.7758 116.139 10.7758C115.617 10.7758 115.261 10.8922 115.072 11.125C114.894 11.3467 114.811 11.6626 114.821 12.0728C114.821 12.2391 114.755 12.3223 114.621 12.3223H112.853C112.764 12.3223 112.703 12.3001 112.669 12.2558C112.647 12.2003 112.631 12.1283 112.619 12.0396C112.586 10.9753 112.859 10.1826 113.437 9.66161C114.015 9.12947 114.933 8.8634 116.189 8.8634C117.402 8.8634 118.297 9.07405 118.875 9.49531C119.453 9.90551 119.743 10.5152 119.743 11.3245C119.743 11.8345 119.648 12.2779 119.459 12.6549C119.27 13.0318 119.036 13.3533 118.758 13.6194C118.491 13.8854 118.214 14.1238 117.924 14.3344C117.646 14.5451 117.413 14.7501 117.224 14.9497C117.035 15.1492 116.94 15.371 116.94 15.6149L116.923 16.0306C116.923 16.1636 116.862 16.2301 116.74 16.2301H114.805ZM115.856 20.1546C115.4 20.1546 115.049 20.0493 114.805 19.8387C114.571 19.628 114.454 19.3176 114.454 18.9074V18.5915C114.454 18.1702 114.571 17.8543 114.805 17.6436C115.049 17.433 115.4 17.3277 115.856 17.3277C116.323 17.3277 116.673 17.433 116.907 17.6436C117.14 17.8543 117.257 18.1702 117.257 18.5915V18.9074C117.257 19.3176 117.14 19.628 116.907 19.8387C116.673 20.0493 116.323 20.1546 115.856 20.1546Z" fill="#684221"/>
</g>
<defs>
<linearGradient id="paint0_linear_203_648" x1="66.5341" y1="27.0225" x2="66.5341" y2="107.89" gradientUnits="userSpaceOnUse">
<stop stop-color="#A76D3B"/>
<stop offset="1" stop-color="#301E0F"/>
</linearGradient>
<linearGradient id="paint1_linear_203_648" x1="66.5342" y1="45.6842" x2="66.5342" y2="112.036" gradientUnits="userSpaceOnUse">
<stop stop-color="#FFE2C8"/>
<stop offset="1" stop-color="#E4C6AA"/>
</linearGradient>
<clipPath id="clip0_203_648">
<rect width="367" height="111" fill="white"/>
</clipPath>
</defs>
</svg>
