<svg width="347" height="267" viewBox="0 0 347 267" fill="none" xmlns="http://www.w3.org/2000/svg">
<ellipse cx="265.397" cy="144.369" rx="41.9587" ry="36.1057" transform="rotate(-31.8265 265.397 144.369)" fill="#684221"/>
<ellipse cx="265.836" cy="145.808" rx="32.2083" ry="28.1548" transform="rotate(-31.8265 265.836 145.808)" fill="#FFDDBE"/>
<ellipse cx="41.9587" cy="36.1057" rx="41.9587" ry="36.1057" transform="matrix(-0.849649 -0.527349 -0.527349 0.849649 109.381 136.254)" fill="#684221"/>
<ellipse cx="32.2083" cy="28.1548" rx="32.2083" ry="28.1548" transform="matrix(-0.849649 -0.527349 -0.527349 0.849649 97.5801 138.872)" fill="#FFDDBE"/>
<ellipse cx="159.537" cy="162.259" rx="105.988" ry="97.2593" fill="url(#paint0_linear_272_1192)"/>
<path fill-rule="evenodd" clip-rule="evenodd" d="M218.327 214.291C239.973 207.112 255.549 187.087 255.549 163.506C255.549 133.894 230.986 109.889 200.685 109.889C184.299 109.889 169.59 116.909 159.537 128.041C149.484 116.909 134.775 109.889 118.388 109.889C88.0878 109.889 63.5243 133.894 63.5243 163.506C63.5243 187.48 79.6252 207.78 101.836 214.64C104.135 243.929 129.328 267 160.068 267C190.93 267 216.201 243.746 218.327 214.291Z" fill="url(#paint1_linear_272_1192)"/>
<path d="M190.71 231.228C190.71 234.909 177.312 244.556 160.784 244.556C144.256 244.556 130.858 234.909 130.858 231.228C130.858 227.548 144.256 231.228 160.784 231.228C177.312 231.228 190.71 227.548 190.71 231.228Z" fill="#806043"/>
<ellipse cx="205.949" cy="159.766" rx="11.0837" ry="12.4691" fill="#806043"/>
<ellipse cx="114.509" cy="159.766" rx="11.0837" ry="12.4691" fill="#806043"/>
<path fill-rule="evenodd" clip-rule="evenodd" d="M160.784 192.303C156.001 189.316 150.295 188.791 147.45 191.252C144.314 193.964 145.842 199.277 150.863 203.118C153.961 205.489 157.665 206.745 160.784 206.722C163.903 206.745 167.607 205.489 170.706 203.118C175.726 199.277 177.254 193.964 174.119 191.252C171.274 188.791 165.567 189.316 160.784 192.303Z" fill="#684221"/>
<mask id="path-11-inside-1_272_1192" fill="white">
<path fill-rule="evenodd" clip-rule="evenodd" d="M279 70C316.555 70 347 54.33 347 35C347 15.67 316.555 0 279 0C241.445 0 211 15.67 211 35C211 42.4831 215.563 49.4177 223.334 55.1071L222.899 72.8202C222.747 78.9767 229.317 82.9884 234.725 80.0413L251.454 70.9234C252.908 70.1309 253.985 68.9949 254.68 67.6951C262.231 69.1841 270.431 70 279 70Z"/>
</mask>
<path fill-rule="evenodd" clip-rule="evenodd" d="M279 70C316.555 70 347 54.33 347 35C347 15.67 316.555 0 279 0C241.445 0 211 15.67 211 35C211 42.4831 215.563 49.4177 223.334 55.1071L222.899 72.8202C222.747 78.9767 229.317 82.9884 234.725 80.0413L251.454 70.9234C252.908 70.1309 253.985 68.9949 254.68 67.6951C262.231 69.1841 270.431 70 279 70Z" fill="#F4F4F5"/>
<path d="M223.334 55.1071L228.333 55.23L228.397 52.6167L226.288 51.0726L223.334 55.1071ZM222.899 72.8202L217.9 72.6973L222.899 72.8202ZM234.725 80.0413L237.117 84.4315H237.117L234.725 80.0413ZM251.454 70.9234L249.061 66.5332L249.061 66.5332L251.454 70.9234ZM254.68 67.6951L255.647 62.7895L252.016 62.0735L250.271 65.3374L254.68 67.6951ZM342 35C342 41.8269 336.517 49.2697 324.795 55.3031C313.333 61.2029 297.149 65 279 65V75C298.406 75 316.223 70.9621 329.371 64.1944C342.261 57.5602 352 47.5031 352 35H342ZM279 5C297.149 5 313.333 8.79713 324.795 14.6969C336.517 20.7302 342 28.1731 342 35H352C352 22.4969 342.261 12.4398 329.371 5.80558C316.223 -0.962109 298.406 -5 279 -5V5ZM216 35C216 28.1731 221.483 20.7302 233.205 14.6969C244.667 8.79713 260.851 5 279 5V-5C259.594 -5 241.777 -0.962109 228.629 5.80558C215.739 12.4398 206 22.4969 206 35H216ZM226.288 51.0726C219.219 45.8978 216 40.2825 216 35H206C206 44.6837 211.906 52.9377 220.381 59.1415L226.288 51.0726ZM227.897 72.9431L228.333 55.23L218.336 54.9842L217.9 72.6973L227.897 72.9431ZM232.332 75.651C230.304 76.7562 227.84 75.2518 227.897 72.9431L217.9 72.6973C217.654 82.7017 228.33 89.2207 237.117 84.4315L232.332 75.651ZM249.061 66.5332L232.332 75.651L237.117 84.4315L253.847 75.3137L249.061 66.5332ZM250.271 65.3374C250.025 65.7968 249.64 66.2174 249.061 66.5332L253.847 75.3137C256.176 74.0444 257.945 72.193 259.089 70.0527L250.271 65.3374ZM279 65C270.744 65 262.869 64.2136 255.647 62.7895L253.713 72.6006C261.594 74.1546 270.117 75 279 75V65Z" fill="#4182CE" mask="url(#path-11-inside-1_272_1192)"/>
<path d="M275.281 39.04C274.988 39.04 274.841 38.88 274.841 38.56V37C274.841 36.0933 275.068 35.3067 275.521 34.64C275.975 33.9733 276.521 33.3733 277.161 32.84C277.828 32.3067 278.495 31.8 279.161 31.32C279.828 30.8133 280.388 30.2933 280.841 29.76C281.295 29.2267 281.521 28.6267 281.521 27.96C281.521 27.2667 281.268 26.76 280.761 26.44C280.255 26.0933 279.495 25.92 278.481 25.92C277.228 25.92 276.375 26.2 275.921 26.76C275.495 27.2933 275.295 28.0533 275.321 29.04C275.321 29.44 275.161 29.64 274.841 29.64H270.601C270.388 29.64 270.241 29.5867 270.161 29.48C270.108 29.3467 270.068 29.1733 270.041 28.96C269.961 26.4 270.615 24.4933 272.001 23.24C273.388 21.96 275.588 21.32 278.601 21.32C281.508 21.32 283.655 21.8267 285.041 22.84C286.428 23.8267 287.121 25.2933 287.121 27.24C287.121 28.4667 286.895 29.5333 286.441 30.44C285.988 31.3467 285.428 32.12 284.761 32.76C284.121 33.4 283.455 33.9733 282.761 34.48C282.095 34.9867 281.535 35.48 281.081 35.96C280.628 36.44 280.401 36.9733 280.401 37.56L280.361 38.56C280.361 38.88 280.215 39.04 279.921 39.04H275.281ZM277.801 48.48C276.708 48.48 275.868 48.2267 275.281 47.72C274.721 47.2133 274.441 46.4667 274.441 45.48V44.72C274.441 43.7067 274.721 42.9467 275.281 42.44C275.868 41.9333 276.708 41.68 277.801 41.68C278.921 41.68 279.761 41.9333 280.321 42.44C280.881 42.9467 281.161 43.7067 281.161 44.72V45.48C281.161 46.4667 280.881 47.2133 280.321 47.72C279.761 48.2267 278.921 48.48 277.801 48.48Z" fill="#684221"/>
<defs>
<linearGradient id="paint0_linear_272_1192" x1="159.537" y1="65" x2="159.537" y2="259.519" gradientUnits="userSpaceOnUse">
<stop stop-color="#A76D3B"/>
<stop offset="1" stop-color="#301E0F"/>
</linearGradient>
<linearGradient id="paint1_linear_272_1192" x1="159.537" y1="109.889" x2="159.537" y2="269.493" gradientUnits="userSpaceOnUse">
<stop stop-color="#FFE2C8"/>
<stop offset="1" stop-color="#E4C6AA"/>
</linearGradient>
</defs>
</svg>
