<svg width="220" height="67" viewBox="0 0 220 67" fill="none" xmlns="http://www.w3.org/2000/svg">
<ellipse cx="66.3491" cy="36.2624" rx="10.4897" ry="9.02643" transform="rotate(-31.8265 66.3491 36.2624)" fill="#684221"/>
<ellipse cx="10.4897" cy="9.02643" rx="10.4897" ry="9.02643" transform="matrix(-0.849649 -0.527349 -0.527349 0.849649 27.3452 34.1249)" fill="#684221"/>
<ellipse cx="8.05206" cy="5.82532" rx="8.05206" ry="5.82532" transform="matrix(-0.849649 -0.527349 -0.527349 0.849649 23.5768 36.1174)" fill="#FFDDBE"/>
<ellipse cx="66.4134" cy="36.8207" rx="8.05206" ry="5.82532" transform="rotate(-31.8265 66.4134 36.8207)" fill="#FFDDBE"/>
<path d="M18.102 33.0835C18.3138 33.9309 12.0673 32.0279 9.99995 34.7499C7.56863 37.951 13.625 43.1249 13.625 43.1249C13.625 43.1249 10.125 42.1249 8.74995 40.3749C7.13749 38.7483 5.95096 36.4026 6.24995 34.2499C6.40446 33.1374 6.89655 32.1836 7.74995 31.4999C8.70368 30.7358 10.0694 30.3089 11.1249 30.3749C12.75 29.9999 17.7092 31.5125 18.102 33.0835Z" fill="black" fill-opacity="0.08"/>
<path d="M61.9748 33.0835C61.7629 33.9309 68.0095 32.0279 70.0768 34.7499C72.5082 37.951 66.4518 43.1249 66.4518 43.1249C66.4518 43.1249 69.9518 42.1249 71.3268 40.3749C72.9393 38.7483 74.1258 36.4026 73.8268 34.2499C73.6723 33.1374 73.1802 32.1836 72.3268 31.4999C71.3731 30.7358 70.0074 30.3089 68.9518 30.3749C67.3268 29.9999 62.3675 31.5125 61.9748 33.0835Z" fill="black" fill-opacity="0.08"/>
<ellipse cx="39.8841" cy="40.6897" rx="26.4969" ry="24.3148" fill="url(#paint0_linear_514_1729)"/>
<path d="M50.1711 27.597C57.7463 27.597 63.8869 33.5984 63.887 41.0013C63.887 46.897 59.9925 51.9032 54.5803 53.6976C54.0489 61.0613 47.7323 66.8744 40.0168 66.8744C32.3315 66.8743 26.0334 61.1065 25.4592 53.7836C19.9066 52.0684 15.8811 46.9949 15.8811 41.0013C15.8811 33.5984 22.0219 27.5972 29.5969 27.597C33.6938 27.597 37.3707 29.353 39.884 32.1361C42.3973 29.3529 46.0742 27.5971 50.1711 27.597Z" fill="url(#paint1_linear_514_1729)"/>
<ellipse cx="51.4874" cy="40.0663" rx="2.77092" ry="3.11728" fill="#806043"/>
<ellipse cx="28.6272" cy="40.0663" rx="2.77092" ry="3.11728" fill="#806043"/>
<path d="M40.1956 48.203C41.3916 47.4554 42.818 47.3221 43.5295 47.9374C44.3134 48.6155 43.9312 49.9439 42.676 50.9042C41.9213 51.4816 41.023 51.7923 40.2561 51.8026C40.236 51.8032 40.2158 51.8035 40.1956 51.8036C40.1753 51.8035 40.1551 51.8032 40.135 51.8026C39.3683 51.7921 38.4704 51.4813 37.7161 50.9042C36.4609 49.9439 36.0787 48.6155 36.8625 47.9374C37.574 47.3222 38.9997 47.4558 40.1956 48.203Z" fill="#684221"/>
<path d="M92.8109 36.9071C90.8199 36.9071 89.3698 36.5073 88.4605 35.7078C87.5512 34.8925 87.1514 33.7638 87.2612 32.3215C87.2925 32.055 87.4023 31.9217 87.5904 31.9217H89.8009C90.0047 31.9217 90.0988 32.0393 90.0831 32.2745C90.0831 33.0426 90.3182 33.607 90.7886 33.9676C91.2589 34.3125 91.98 34.4849 92.952 34.4849C93.9083 34.4849 94.6138 34.336 95.0684 34.0381C95.5387 33.7246 95.7739 33.2464 95.7739 32.6037C95.7739 32.3058 95.719 32.0471 95.6093 31.8277C95.4996 31.5925 95.3114 31.3887 95.0449 31.2162C94.7784 31.0281 94.4178 30.84 93.9632 30.6519L90.5534 29.1939C89.8009 28.8647 89.1973 28.5119 88.7427 28.1357C88.288 27.7437 87.9667 27.2969 87.7785 26.7953C87.5904 26.2936 87.4963 25.7214 87.4963 25.0786C87.512 23.7461 87.9588 22.727 88.8367 22.0216C89.7147 21.3161 91.0237 20.9633 92.7639 20.9633C93.9867 20.9633 95.0214 21.1358 95.868 21.4807C96.7302 21.8099 97.373 22.3037 97.7963 22.9622C98.2195 23.605 98.3842 24.4123 98.2901 25.3843C98.2587 25.6665 98.1647 25.8076 98.0079 25.8076H95.7739C95.6798 25.8076 95.6093 25.7763 95.5623 25.7135C95.5152 25.6508 95.4996 25.5411 95.5152 25.3843C95.5623 24.7572 95.3349 24.2634 94.8333 23.9028C94.3473 23.5266 93.6496 23.3384 92.7404 23.3384C91.9408 23.3384 91.3373 23.4795 90.9296 23.7617C90.522 24.0439 90.3182 24.4672 90.3182 25.0316C90.3182 25.3294 90.3731 25.596 90.4828 25.8311C90.5926 26.0506 90.7807 26.2544 91.0472 26.4425C91.3294 26.6307 91.7057 26.8266 92.176 27.0304L95.5387 28.4649C96.3069 28.7784 96.9105 29.1312 97.3495 29.5231C97.8041 29.8994 98.1255 30.3383 98.3136 30.84C98.5174 31.3417 98.6115 31.9374 98.5958 32.6272C98.5958 33.9911 98.1333 35.0493 97.2084 35.8018C96.2834 36.5387 94.8176 36.9071 92.8109 36.9071ZM101.471 36.6249C101.299 36.6249 101.212 36.5308 101.212 36.3427V25.3373C101.212 25.1492 101.299 25.0551 101.471 25.0551H103.705C103.893 25.0551 103.987 25.1492 103.987 25.3373V36.3427C103.987 36.5308 103.893 36.6249 103.705 36.6249H101.471ZM102.6 23.3855C102.067 23.3855 101.659 23.2444 101.377 22.9622C101.11 22.68 100.977 22.3194 100.977 21.8805V21.5277C100.977 21.0731 101.11 20.7125 101.377 20.446C101.659 20.1638 102.067 20.0227 102.6 20.0227C103.133 20.0227 103.533 20.1638 103.799 20.446C104.066 20.7125 104.199 21.0731 104.199 21.5277V21.8805C104.199 22.3194 104.066 22.68 103.799 22.9622C103.533 23.2444 103.133 23.3855 102.6 23.3855ZM110.998 36.9071C109.446 36.9071 108.301 36.6014 107.564 35.99C106.843 35.3785 106.506 34.4301 106.553 33.1445C106.553 32.9721 106.647 32.8859 106.835 32.8859H108.952C109.109 32.8859 109.187 32.9721 109.187 33.1445C109.187 33.7089 109.336 34.1244 109.634 34.3909C109.932 34.6574 110.386 34.7906 110.998 34.7906C111.64 34.7906 112.119 34.6887 112.432 34.4849C112.746 34.2811 112.902 33.9676 112.902 33.5443C112.902 33.2464 112.801 32.9956 112.597 32.7918C112.393 32.5723 112.064 32.3685 111.609 32.1804L108.928 31.0516C108.113 30.7067 107.525 30.2991 107.165 29.8288C106.82 29.3585 106.647 28.7471 106.647 27.9946C106.647 26.9285 106.992 26.129 107.682 25.596C108.387 25.0473 109.469 24.7729 110.927 24.7729C112.416 24.7729 113.537 25.0551 114.29 25.6195C115.042 26.1839 115.419 27.0069 115.419 28.0886C115.419 28.2611 115.325 28.3473 115.136 28.3473H113.02C112.832 28.3473 112.738 28.2219 112.738 27.9711C112.738 27.6262 112.589 27.3596 112.291 27.1715C111.993 26.9677 111.578 26.8658 111.045 26.8658C110.496 26.8658 110.088 26.9599 109.822 27.148C109.555 27.3361 109.422 27.6183 109.422 27.9946C109.422 28.2768 109.5 28.4962 109.657 28.653C109.83 28.8098 110.159 28.9901 110.645 29.1939L113.326 30.3226C114.157 30.6675 114.752 31.083 115.113 31.569C115.489 32.0393 115.677 32.6585 115.677 33.4267C115.677 34.5712 115.278 35.4412 114.478 36.037C113.678 36.617 112.518 36.9071 110.998 36.9071ZM122.63 36.9071C121.721 36.9071 120.992 36.766 120.443 36.4838C119.91 36.2016 119.519 35.7626 119.268 35.1669C119.033 34.5712 118.915 33.8108 118.915 32.8859V27.3832H117.198C117.01 27.3832 116.916 27.2891 116.916 27.101V25.3373C116.916 25.1492 117.01 25.0551 117.198 25.0551H119.009L119.315 22.2332C119.346 22.0608 119.448 21.9745 119.62 21.9745H121.408C121.596 21.9745 121.69 22.0686 121.69 22.2567V25.0551H124.911C125.1 25.0551 125.194 25.1492 125.194 25.3373V27.101C125.194 27.2891 125.1 27.3832 124.911 27.3832H121.69V32.7448C121.69 33.3719 121.807 33.8265 122.043 34.1087C122.278 34.3909 122.67 34.532 123.218 34.532C123.501 34.532 123.783 34.5006 124.065 34.4379C124.363 34.3752 124.637 34.289 124.888 34.1792C125.107 34.1008 125.217 34.1714 125.217 34.3909V36.2016C125.217 36.3584 125.147 36.4603 125.006 36.5073C124.692 36.6327 124.331 36.7268 123.924 36.7895C123.532 36.8679 123.101 36.9071 122.63 36.9071ZM131.936 36.9071C130.243 36.9071 128.973 36.5387 128.127 35.8018C127.28 35.0493 126.857 33.9362 126.857 32.4626V29.5466C126.857 27.9789 127.272 26.7953 128.103 25.9957C128.95 25.1805 130.219 24.7729 131.913 24.7729C133.574 24.7729 134.829 25.1648 135.675 25.9487C136.522 26.7326 136.945 27.877 136.945 29.382V31.2162C136.945 31.4044 136.851 31.4984 136.663 31.4984H129.608V32.2039C129.608 33.0662 129.788 33.7011 130.149 34.1087C130.525 34.5006 131.129 34.6966 131.96 34.6966C132.602 34.6966 133.096 34.5947 133.441 34.3909C133.802 34.1871 133.982 33.8814 133.982 33.4738C133.982 33.2856 134.076 33.1916 134.264 33.1916H136.428C136.6 33.1916 136.694 33.2778 136.71 33.4502C136.757 34.579 136.365 35.4412 135.534 36.037C134.719 36.617 133.519 36.9071 131.936 36.9071ZM129.608 29.6172H134.217V29.4996C134.217 28.6373 134.029 28.0024 133.653 27.5948C133.276 27.1872 132.704 26.9834 131.936 26.9834C131.137 26.9834 130.549 27.195 130.172 27.6183C129.796 28.0259 129.608 28.6609 129.608 29.5231V29.6172ZM139.891 36.6249C139.718 36.6249 139.632 36.5308 139.632 36.3427V27.9946C139.632 27.5399 139.616 27.0853 139.585 26.6307C139.569 26.176 139.53 25.7527 139.468 25.3608C139.436 25.157 139.53 25.0551 139.75 25.0551H141.725C141.882 25.0551 141.976 25.1256 142.007 25.2667C142.039 25.4862 142.078 25.7214 142.125 25.9722C142.172 26.2231 142.203 26.4896 142.219 26.7718C142.83 26.1447 143.442 25.6587 144.053 25.3138C144.665 24.9532 145.362 24.7729 146.146 24.7729C146.977 24.7729 147.62 24.9454 148.074 25.2903C148.545 25.6352 148.882 26.1447 149.086 26.8188C149.728 26.176 150.363 25.6743 150.99 25.3138C151.633 24.9532 152.354 24.7729 153.154 24.7729C154.22 24.7729 155.019 25.0943 155.552 25.7371C156.101 26.3641 156.375 27.3283 156.375 28.6295V36.3427C156.375 36.5308 156.289 36.6249 156.117 36.6249H153.883C153.695 36.6249 153.601 36.5308 153.601 36.3427V29.0998C153.601 28.4571 153.483 27.9789 153.248 27.6654C153.028 27.3361 152.66 27.1715 152.143 27.1715C151.704 27.1715 151.265 27.3048 150.826 27.5713C150.402 27.8221 149.924 28.1984 149.391 28.7V36.3427C149.391 36.5308 149.297 36.6249 149.109 36.6249H146.899C146.71 36.6249 146.616 36.5308 146.616 36.3427V29.0998C146.616 28.4571 146.499 27.9789 146.264 27.6654C146.028 27.3361 145.66 27.1715 145.158 27.1715C144.719 27.1715 144.28 27.3048 143.842 27.5713C143.418 27.8221 142.94 28.1984 142.407 28.7V36.3427C142.407 36.5308 142.313 36.6249 142.125 36.6249H139.891ZM166.178 36.6249C166.084 36.6249 166.013 36.6014 165.966 36.5543C165.935 36.4916 165.903 36.4132 165.872 36.3192C165.841 36.1624 165.802 35.8959 165.755 35.5196C165.708 35.1277 165.668 34.7671 165.637 34.4379L165.472 33.4738V28.7706C165.472 28.1122 165.339 27.6497 165.073 27.3832C164.806 27.101 164.344 26.9599 163.685 26.9599C162.494 26.9599 161.914 27.391 161.945 28.2532C161.945 28.4414 161.859 28.5354 161.686 28.5354H159.57C159.382 28.5354 159.28 28.3943 159.264 28.1122C159.17 27.0618 159.523 26.2466 160.322 25.6665C161.138 25.0708 162.298 24.7729 163.803 24.7729C165.339 24.7729 166.46 25.1021 167.166 25.7606C167.887 26.419 168.247 27.438 168.247 28.8176V33.7089C168.247 34.2106 168.255 34.6809 168.271 35.1199C168.302 35.5588 168.341 35.9586 168.388 36.3192C168.42 36.523 168.333 36.6249 168.13 36.6249H166.178ZM161.686 36.9071C160.746 36.9071 160.025 36.6249 159.523 36.0605C159.021 35.4961 158.77 34.6887 158.77 33.6384C158.77 32.8232 158.927 32.1647 159.241 31.663C159.554 31.1457 160.064 30.7459 160.769 30.4637C161.49 30.1659 162.447 29.9699 163.638 29.8758L165.825 29.6877V31.3809L163.873 31.5455C162.964 31.6238 162.337 31.7963 161.992 32.0628C161.647 32.3293 161.475 32.7604 161.475 33.3562C161.475 33.8108 161.569 34.1557 161.757 34.3909C161.945 34.6104 162.235 34.7201 162.627 34.7201C163.097 34.7201 163.575 34.5712 164.061 34.2733C164.547 33.9598 165.159 33.4111 165.896 32.6272L165.99 34.5085C165.519 35.0258 165.057 35.4648 164.602 35.8253C164.148 36.1859 163.685 36.4524 163.215 36.6249C162.745 36.813 162.235 36.9071 161.686 36.9071ZM176.502 36.6249C176.33 36.6249 176.243 36.5308 176.243 36.3427V21.5042C176.243 21.3161 176.33 21.222 176.502 21.222H178.783C178.971 21.222 179.065 21.3161 179.065 21.5042V25.5489C179.065 26.0036 179.057 26.466 179.042 26.9364C179.042 27.4067 179.026 27.877 178.995 28.3473H179.042C179.355 27.924 179.677 27.5007 180.006 27.0775C180.335 26.6542 180.672 26.2309 181.017 25.8076L184.827 21.3631C184.905 21.2691 185.015 21.222 185.156 21.222H188.001C188.111 21.222 188.182 21.2534 188.213 21.3161C188.26 21.3788 188.244 21.4572 188.166 21.5512L182.992 27.4772L188.636 36.2957C188.699 36.3897 188.715 36.4681 188.683 36.5308C188.652 36.5935 188.581 36.6249 188.472 36.6249H185.65C185.509 36.6249 185.399 36.5622 185.32 36.4368L181.041 29.6642L179.065 31.8982V36.3427C179.065 36.5308 178.971 36.6249 178.783 36.6249H176.502ZM190.832 36.6249C190.66 36.6249 190.573 36.5308 190.573 36.3427V21.5042C190.573 21.3161 190.66 21.222 190.832 21.222H195.582C198.012 21.222 199.823 21.7864 201.014 22.9152C202.206 24.0439 202.802 25.7371 202.802 27.9946V29.4055C202.802 31.8041 202.206 33.607 201.014 34.8142C199.839 36.0213 198.028 36.6249 195.582 36.6249H190.832ZM193.395 34.2027H195.394C196.977 34.2027 198.138 33.8108 198.874 33.027C199.611 32.2274 199.98 31.0281 199.98 29.429V27.9711C199.98 26.5131 199.611 25.4314 198.874 24.7259C198.138 24.0047 196.977 23.6441 195.394 23.6441H193.395V34.2027ZM206.103 36.6249C205.931 36.6249 205.845 36.5308 205.845 36.3427V21.5042C205.845 21.3161 205.931 21.222 206.103 21.222H215.11C215.282 21.222 215.369 21.3161 215.369 21.5042V23.4325C215.369 23.6206 215.282 23.7147 215.11 23.7147H208.667V27.6418H214.546C214.718 27.6418 214.804 27.7359 214.804 27.924V29.7347C214.804 29.9229 214.718 30.0169 214.546 30.0169H208.667V34.1322H215.11C215.282 34.1322 215.369 34.2263 215.369 34.4144V36.3427C215.369 36.5308 215.282 36.6249 215.11 36.6249H206.103ZM207.514 19.8346C207.326 19.913 207.232 19.8581 207.232 19.67V18.1885C207.232 18.0474 207.295 17.9533 207.42 17.9063L210.43 16.5189C210.571 16.4562 210.705 16.4562 210.83 16.5189L213.84 17.9063C213.966 17.9533 214.028 18.0474 214.028 18.1885V19.67C214.028 19.8581 213.934 19.913 213.746 19.8346L210.642 18.6588L207.514 19.8346Z" fill="#684221"/>
<path d="M86.25 42.7499C85.9048 42.7499 85.625 43.0297 85.625 43.3749C85.625 43.7201 85.9048 43.9999 86.25 43.9999V42.7499ZM220 43.3749L213.75 39.7664V46.9833L220 43.3749ZM86.25 43.3749V43.9999H214.375V43.3749V42.7499H86.25V43.3749Z" fill="#684221"/>
<path d="M87.2 58.8749C87.1333 58.8749 87.1 58.8415 87.1 58.7749V52.4249C87.1 52.3582 87.1333 52.3249 87.2 52.3249H88.87C89.6767 52.3249 90.2833 52.4982 90.69 52.8449C91.0967 53.1849 91.3 53.6915 91.3 54.3649C91.3 55.0315 91.0933 55.5382 90.68 55.8849C90.2733 56.2315 89.67 56.4049 88.87 56.4049H87.95V58.7749C87.95 58.8415 87.9167 58.8749 87.85 58.8749H87.2ZM87.95 55.6849H88.85C89.41 55.6849 89.8167 55.5815 90.07 55.3749C90.3233 55.1615 90.45 54.8349 90.45 54.3949C90.45 53.9215 90.3167 53.5782 90.05 53.3649C89.79 53.1515 89.3833 53.0449 88.83 53.0449H87.95V55.6849ZM95.1327 58.8749C95.0927 58.8749 95.0661 58.8615 95.0527 58.8349C95.0394 58.8082 95.0261 58.7749 95.0127 58.7349C95.0061 58.6815 94.9894 58.5682 94.9627 58.3949C94.9427 58.2149 94.9294 58.0549 94.9227 57.9149L94.8927 57.5349V55.5449C94.8927 55.2115 94.8261 54.9749 94.6927 54.8349C94.5594 54.6949 94.3261 54.6249 93.9927 54.6249C93.3927 54.6249 93.0927 54.8315 93.0927 55.2449C93.0927 55.3115 93.0627 55.3449 93.0027 55.3449H92.3427C92.2761 55.3449 92.2394 55.2815 92.2327 55.1549C92.1994 54.7749 92.3461 54.4682 92.6727 54.2349C93.0061 53.9949 93.4561 53.8749 94.0227 53.8749C94.6027 53.8749 95.0327 54.0115 95.3127 54.2849C95.5994 54.5582 95.7427 54.9715 95.7427 55.5249V57.6649C95.7427 57.8982 95.7494 58.1082 95.7627 58.2949C95.7761 58.4749 95.7927 58.6315 95.8127 58.7649C95.8261 58.8382 95.7927 58.8749 95.7127 58.8749H95.1327ZM93.2227 58.9949C92.8361 58.9949 92.5394 58.8782 92.3327 58.6449C92.1327 58.4115 92.0327 58.0715 92.0327 57.6249C92.0327 57.2782 92.0994 56.9949 92.2327 56.7749C92.3727 56.5549 92.5927 56.3849 92.8927 56.2649C93.1994 56.1449 93.6061 56.0649 94.1127 56.0249L95.0527 55.9449V56.5949L94.0927 56.6749C93.6327 56.7149 93.3161 56.7982 93.1427 56.9249C92.9694 57.0515 92.8827 57.2649 92.8827 57.5649C92.8827 57.7915 92.9294 57.9615 93.0227 58.0749C93.1161 58.1882 93.2561 58.2449 93.4427 58.2449C93.6627 58.2449 93.8927 58.1715 94.1327 58.0249C94.3727 57.8715 94.6894 57.5915 95.0827 57.1849V57.9349C94.8494 58.1882 94.6294 58.3949 94.4227 58.5549C94.2227 58.7082 94.0261 58.8182 93.8327 58.8849C93.6394 58.9582 93.4361 58.9949 93.2227 58.9949ZM97.3441 58.8749C97.2775 58.8749 97.2441 58.8415 97.2441 58.7749V55.1849C97.2441 54.9982 97.2375 54.8182 97.2241 54.6449C97.2175 54.4649 97.2008 54.2849 97.1741 54.1049C97.1608 54.0315 97.1941 53.9949 97.2741 53.9949H97.8841C97.9508 53.9949 97.9875 54.0249 97.9941 54.0849C98.0208 54.2115 98.0408 54.3582 98.0541 54.5249C98.0675 54.6849 98.0741 54.8215 98.0741 54.9349L98.0941 55.4649V58.7749C98.0941 58.8415 98.0608 58.8749 97.9941 58.8749H97.3441ZM97.9841 55.7649L97.9641 54.9449C98.1041 54.7382 98.2641 54.5549 98.4441 54.3949C98.6308 54.2349 98.8175 54.1082 99.0041 54.0149C99.1975 53.9215 99.3741 53.8749 99.5341 53.8749C99.6541 53.8749 99.7441 53.8849 99.8041 53.9049C99.8575 53.9182 99.8875 53.9515 99.8941 54.0049C99.9075 54.1449 99.9108 54.2882 99.9041 54.4349C99.9041 54.5815 99.8941 54.7215 99.8741 54.8549C99.8608 54.9282 99.8175 54.9549 99.7441 54.9349C99.6908 54.9215 99.6341 54.9115 99.5741 54.9049C99.5141 54.8982 99.4508 54.8949 99.3841 54.8949C99.2175 54.8949 99.0508 54.9315 98.8841 55.0049C98.7175 55.0782 98.5575 55.1815 98.4041 55.3149C98.2508 55.4415 98.1108 55.5915 97.9841 55.7649ZM103.541 58.8749C103.501 58.8749 103.474 58.8615 103.461 58.8349C103.448 58.8082 103.434 58.7749 103.421 58.7349C103.414 58.6815 103.398 58.5682 103.371 58.3949C103.351 58.2149 103.338 58.0549 103.331 57.9149L103.301 57.5349V55.5449C103.301 55.2115 103.234 54.9749 103.101 54.8349C102.968 54.6949 102.734 54.6249 102.401 54.6249C101.801 54.6249 101.501 54.8315 101.501 55.2449C101.501 55.3115 101.471 55.3449 101.411 55.3449H100.751C100.684 55.3449 100.648 55.2815 100.641 55.1549C100.608 54.7749 100.754 54.4682 101.081 54.2349C101.414 53.9949 101.864 53.8749 102.431 53.8749C103.011 53.8749 103.441 54.0115 103.721 54.2849C104.008 54.5582 104.151 54.9715 104.151 55.5249V57.6649C104.151 57.8982 104.158 58.1082 104.171 58.2949C104.184 58.4749 104.201 58.6315 104.221 58.7649C104.234 58.8382 104.201 58.8749 104.121 58.8749H103.541ZM101.631 58.9949C101.244 58.9949 100.948 58.8782 100.741 58.6449C100.541 58.4115 100.441 58.0715 100.441 57.6249C100.441 57.2782 100.508 56.9949 100.641 56.7749C100.781 56.5549 101.001 56.3849 101.301 56.2649C101.608 56.1449 102.014 56.0649 102.521 56.0249L103.461 55.9449V56.5949L102.501 56.6749C102.041 56.7149 101.724 56.7982 101.551 56.9249C101.378 57.0515 101.291 57.2649 101.291 57.5649C101.291 57.7915 101.338 57.9615 101.431 58.0749C101.524 58.1882 101.664 58.2449 101.851 58.2449C102.071 58.2449 102.301 58.1715 102.541 58.0249C102.781 57.8715 103.098 57.5915 103.491 57.1849V57.9349C103.258 58.1882 103.038 58.3949 102.831 58.5549C102.631 58.7082 102.434 58.8182 102.241 58.8849C102.048 58.9582 101.844 58.9949 101.631 58.9949ZM107.952 58.8749C107.885 58.8749 107.852 58.8415 107.852 58.7749V52.4249C107.852 52.3582 107.885 52.3249 107.952 52.3249H108.602C108.669 52.3249 108.702 52.3582 108.702 52.4249V58.7749C108.702 58.8415 108.669 58.8749 108.602 58.8749H107.952ZM113.611 58.8749C113.544 58.8749 113.511 58.8415 113.511 58.7749V55.5849C113.511 55.2515 113.441 55.0082 113.301 54.8549C113.167 54.7015 112.964 54.6249 112.691 54.6249C112.431 54.6249 112.174 54.7015 111.921 54.8549C111.667 55.0082 111.351 55.2715 110.971 55.6449L110.981 54.8749C111.207 54.6349 111.421 54.4415 111.621 54.2949C111.827 54.1482 112.031 54.0415 112.231 53.9749C112.437 53.9082 112.654 53.8749 112.881 53.8749C113.361 53.8749 113.727 54.0149 113.981 54.2949C114.234 54.5749 114.361 54.9915 114.361 55.5449V58.7749C114.361 58.8415 114.327 58.8749 114.261 58.8749H113.611ZM110.401 58.8749C110.334 58.8749 110.301 58.8415 110.301 58.7749V55.2149C110.301 55.0415 110.291 54.8482 110.271 54.6349C110.257 54.4149 110.244 54.2449 110.231 54.1249C110.217 54.0382 110.251 53.9949 110.331 53.9949H110.941C111.001 53.9949 111.037 54.0282 111.051 54.0949C111.064 54.1482 111.077 54.2315 111.091 54.3449C111.104 54.4582 111.117 54.5782 111.131 54.7049C111.144 54.8249 111.151 54.9282 111.151 55.0149V55.2749V58.7749C111.151 58.8415 111.117 58.8749 111.051 58.8749H110.401ZM117.069 58.8749C117.009 58.8749 116.969 58.8482 116.949 58.7949L115.319 54.1049C115.299 54.0315 115.325 53.9949 115.399 53.9949H116.089C116.149 53.9949 116.189 54.0215 116.209 54.0749L117.099 56.8749C117.172 57.1015 117.245 57.3315 117.319 57.5649C117.392 57.7915 117.462 58.0215 117.529 58.2549H117.549C117.615 58.0215 117.685 57.7915 117.759 57.5649C117.832 57.3382 117.905 57.1115 117.979 56.8849L118.869 54.0749C118.889 54.0215 118.929 53.9949 118.989 53.9949H119.679C119.752 53.9949 119.779 54.0315 119.759 54.1049L118.119 58.7949C118.099 58.8482 118.059 58.8749 117.999 58.8749H117.069ZM122.532 58.9949C121.892 58.9949 121.399 58.8449 121.052 58.5449C120.712 58.2449 120.542 57.8015 120.542 57.2149V55.8149C120.542 55.1815 120.712 54.7015 121.052 54.3749C121.392 54.0415 121.885 53.8749 122.532 53.8749C123.179 53.8749 123.669 54.0382 124.002 54.3649C124.342 54.6849 124.512 55.1515 124.512 55.7649V56.5449C124.512 56.6115 124.479 56.6449 124.412 56.6449H121.392V56.9649C121.392 57.4115 121.485 57.7382 121.672 57.9449C121.859 58.1449 122.162 58.2449 122.582 58.2449C122.895 58.2449 123.135 58.1949 123.302 58.0949C123.475 57.9882 123.562 57.8349 123.562 57.6349C123.562 57.5615 123.599 57.5249 123.672 57.5249H124.322C124.375 57.5249 124.409 57.5549 124.422 57.6149C124.449 58.0415 124.292 58.3782 123.952 58.6249C123.612 58.8715 123.139 58.9949 122.532 58.9949ZM121.392 55.9149H123.662V55.8549C123.662 55.4349 123.569 55.1249 123.382 54.9249C123.195 54.7249 122.915 54.6249 122.542 54.6249C122.155 54.6249 121.865 54.7282 121.672 54.9349C121.485 55.1415 121.392 55.4515 121.392 55.8649V55.9149ZM129.167 58.8749C129.101 58.8749 129.067 58.8415 129.067 58.7749V55.5849C129.067 55.2515 128.997 55.0082 128.857 54.8549C128.724 54.7015 128.521 54.6249 128.247 54.6249C127.987 54.6249 127.731 54.7015 127.477 54.8549C127.224 55.0082 126.907 55.2715 126.527 55.6449L126.537 54.8749C126.764 54.6349 126.977 54.4415 127.177 54.2949C127.384 54.1482 127.587 54.0415 127.787 53.9749C127.994 53.9082 128.211 53.8749 128.437 53.8749C128.917 53.8749 129.284 54.0149 129.537 54.2949C129.791 54.5749 129.917 54.9915 129.917 55.5449V58.7749C129.917 58.8415 129.884 58.8749 129.817 58.8749H129.167ZM125.957 58.8749C125.891 58.8749 125.857 58.8415 125.857 58.7749V55.2149C125.857 55.0415 125.847 54.8482 125.827 54.6349C125.814 54.4149 125.801 54.2449 125.787 54.1249C125.774 54.0382 125.807 53.9949 125.887 53.9949H126.497C126.557 53.9949 126.594 54.0282 126.607 54.0949C126.621 54.1482 126.634 54.2315 126.647 54.3449C126.661 54.4582 126.674 54.5782 126.687 54.7049C126.701 54.8249 126.707 54.9282 126.707 55.0149V55.2749V58.7749C126.707 58.8415 126.674 58.8749 126.607 58.8749H125.957ZM133.222 58.9949C132.882 58.9949 132.608 58.9382 132.402 58.8249C132.202 58.7049 132.055 58.5282 131.962 58.2949C131.875 58.0615 131.832 57.7715 131.832 57.4249V54.7249H131.062C130.995 54.7249 130.962 54.6915 130.962 54.6249V54.0949C130.962 54.0282 130.995 53.9949 131.062 53.9949H131.852L131.962 52.7949C131.968 52.7282 132.005 52.6949 132.072 52.6949H132.572C132.638 52.6949 132.672 52.7282 132.672 52.7949L132.682 53.9949H134.172C134.238 53.9949 134.272 54.0282 134.272 54.0949V54.6249C134.272 54.6915 134.238 54.7249 134.172 54.7249H132.682V57.4049C132.682 57.7182 132.735 57.9382 132.842 58.0649C132.955 58.1915 133.145 58.2549 133.412 58.2549C133.545 58.2549 133.678 58.2415 133.812 58.2149C133.945 58.1815 134.062 58.1415 134.162 58.0949C134.242 58.0615 134.282 58.0849 134.282 58.1649V58.7149C134.282 58.7682 134.255 58.8049 134.202 58.8249C134.082 58.8715 133.942 58.9115 133.782 58.9449C133.622 58.9782 133.435 58.9949 133.222 58.9949ZM138.15 58.8749C138.11 58.8749 138.084 58.8615 138.07 58.8349C138.057 58.8082 138.044 58.7749 138.03 58.7349C138.024 58.6815 138.007 58.5682 137.98 58.3949C137.96 58.2149 137.947 58.0549 137.94 57.9149L137.91 57.5349V55.5449C137.91 55.2115 137.844 54.9749 137.71 54.8349C137.577 54.6949 137.344 54.6249 137.01 54.6249C136.41 54.6249 136.11 54.8315 136.11 55.2449C136.11 55.3115 136.08 55.3449 136.02 55.3449H135.36C135.294 55.3449 135.257 55.2815 135.25 55.1549C135.217 54.7749 135.364 54.4682 135.69 54.2349C136.024 53.9949 136.474 53.8749 137.04 53.8749C137.62 53.8749 138.05 54.0115 138.33 54.2849C138.617 54.5582 138.76 54.9715 138.76 55.5249V57.6649C138.76 57.8982 138.767 58.1082 138.78 58.2949C138.794 58.4749 138.81 58.6315 138.83 58.7649C138.844 58.8382 138.81 58.8749 138.73 58.8749H138.15ZM136.24 58.9949C135.854 58.9949 135.557 58.8782 135.35 58.6449C135.15 58.4115 135.05 58.0715 135.05 57.6249C135.05 57.2782 135.117 56.9949 135.25 56.7749C135.39 56.5549 135.61 56.3849 135.91 56.2649C136.217 56.1449 136.624 56.0649 137.13 56.0249L138.07 55.9449V56.5949L137.11 56.6749C136.65 56.7149 136.334 56.7982 136.16 56.9249C135.987 57.0515 135.9 57.2649 135.9 57.5649C135.9 57.7915 135.947 57.9615 136.04 58.0749C136.134 58.1882 136.274 58.2449 136.46 58.2449C136.68 58.2449 136.91 58.1715 137.15 58.0249C137.39 57.8715 137.707 57.5915 138.1 57.1849V57.9349C137.867 58.1882 137.647 58.3949 137.44 58.5549C137.24 58.7082 137.044 58.8182 136.85 58.8849C136.657 58.9582 136.454 58.9949 136.24 58.9949ZM140.362 58.8749C140.295 58.8749 140.262 58.8415 140.262 58.7749V55.1849C140.262 54.9982 140.255 54.8182 140.242 54.6449C140.235 54.4649 140.218 54.2849 140.192 54.1049C140.178 54.0315 140.212 53.9949 140.292 53.9949H140.902C140.968 53.9949 141.005 54.0249 141.012 54.0849C141.038 54.2115 141.058 54.3582 141.072 54.5249C141.085 54.6849 141.092 54.8215 141.092 54.9349L141.112 55.4649V58.7749C141.112 58.8415 141.078 58.8749 141.012 58.8749H140.362ZM141.002 55.7649L140.982 54.9449C141.122 54.7382 141.282 54.5549 141.462 54.3949C141.648 54.2349 141.835 54.1082 142.022 54.0149C142.215 53.9215 142.392 53.8749 142.552 53.8749C142.672 53.8749 142.762 53.8849 142.822 53.9049C142.875 53.9182 142.905 53.9515 142.912 54.0049C142.925 54.1449 142.928 54.2882 142.922 54.4349C142.922 54.5815 142.912 54.7215 142.892 54.8549C142.878 54.9282 142.835 54.9549 142.762 54.9349C142.708 54.9215 142.652 54.9115 142.592 54.9049C142.532 54.8982 142.468 54.8949 142.402 54.8949C142.235 54.8949 142.068 54.9315 141.902 55.0049C141.735 55.0782 141.575 55.1815 141.422 55.3149C141.268 55.4415 141.128 55.5915 141.002 55.7649ZM143.926 58.8749C143.86 58.8749 143.826 58.8415 143.826 58.7749V54.0949C143.826 54.0282 143.86 53.9949 143.926 53.9949H144.576C144.643 53.9949 144.676 54.0282 144.676 54.0949V58.7749C144.676 58.8415 144.643 58.8749 144.576 58.8749H143.926ZM144.256 53.1749C144.063 53.1749 143.923 53.1249 143.836 53.0249C143.75 52.9182 143.706 52.7849 143.706 52.6249V52.5249C143.706 52.3649 143.75 52.2349 143.836 52.1349C143.923 52.0282 144.063 51.9749 144.256 51.9749C144.45 51.9749 144.59 52.0282 144.676 52.1349C144.763 52.2349 144.806 52.3649 144.806 52.5249V52.6249C144.806 52.7849 144.763 52.9182 144.676 53.0249C144.59 53.1249 144.45 53.1749 144.256 53.1749ZM149.01 58.8749C148.97 58.8749 148.943 58.8615 148.93 58.8349C148.916 58.8082 148.903 58.7749 148.89 58.7349C148.883 58.6815 148.866 58.5682 148.84 58.3949C148.82 58.2149 148.806 58.0549 148.8 57.9149L148.77 57.5349V55.5449C148.77 55.2115 148.703 54.9749 148.57 54.8349C148.436 54.6949 148.203 54.6249 147.87 54.6249C147.27 54.6249 146.97 54.8315 146.97 55.2449C146.97 55.3115 146.94 55.3449 146.88 55.3449H146.22C146.153 55.3449 146.116 55.2815 146.11 55.1549C146.076 54.7749 146.223 54.4682 146.55 54.2349C146.883 53.9949 147.333 53.8749 147.9 53.8749C148.48 53.8749 148.91 54.0115 149.19 54.2849C149.476 54.5582 149.62 54.9715 149.62 55.5249V57.6649C149.62 57.8982 149.626 58.1082 149.64 58.2949C149.653 58.4749 149.67 58.6315 149.69 58.7649C149.703 58.8382 149.67 58.8749 149.59 58.8749H149.01ZM147.1 58.9949C146.713 58.9949 146.416 58.8782 146.21 58.6449C146.01 58.4115 145.91 58.0715 145.91 57.6249C145.91 57.2782 145.976 56.9949 146.11 56.7749C146.25 56.5549 146.47 56.3849 146.77 56.2649C147.076 56.1449 147.483 56.0649 147.99 56.0249L148.93 55.9449V56.5949L147.97 56.6749C147.51 56.7149 147.193 56.7982 147.02 56.9249C146.846 57.0515 146.76 57.2649 146.76 57.5649C146.76 57.7915 146.806 57.9615 146.9 58.0749C146.993 58.1882 147.133 58.2449 147.32 58.2449C147.54 58.2449 147.77 58.1715 148.01 58.0249C148.25 57.8715 148.566 57.5915 148.96 57.1849V57.9349C148.726 58.1882 148.506 58.3949 148.3 58.5549C148.1 58.7082 147.903 58.8182 147.71 58.8849C147.516 58.9582 147.313 58.9949 147.1 58.9949ZM154.431 58.8749C154.364 58.8749 154.331 58.8415 154.331 58.7749V55.5849C154.331 55.2515 154.261 55.0082 154.121 54.8549C153.988 54.7015 153.784 54.6249 153.511 54.6249C153.251 54.6249 152.994 54.7015 152.741 54.8549C152.488 55.0082 152.171 55.2715 151.791 55.6449L151.801 54.8749C152.028 54.6349 152.241 54.4415 152.441 54.2949C152.648 54.1482 152.851 54.0415 153.051 53.9749C153.258 53.9082 153.474 53.8749 153.701 53.8749C154.181 53.8749 154.548 54.0149 154.801 54.2949C155.054 54.5749 155.181 54.9915 155.181 55.5449V58.7749C155.181 58.8415 155.148 58.8749 155.081 58.8749H154.431ZM151.221 58.8749C151.154 58.8749 151.121 58.8415 151.121 58.7749V55.2149C151.121 55.0415 151.111 54.8482 151.091 54.6349C151.078 54.4149 151.064 54.2449 151.051 54.1249C151.038 54.0382 151.071 53.9949 151.151 53.9949H151.761C151.821 53.9949 151.858 54.0282 151.871 54.0949C151.884 54.1482 151.898 54.2315 151.911 54.3449C151.924 54.4582 151.938 54.5782 151.951 54.7049C151.964 54.8249 151.971 54.9282 151.971 55.0149V55.2749V58.7749C151.971 58.8415 151.938 58.8749 151.871 58.8749H151.221ZM158.485 58.9949C158.145 58.9949 157.872 58.9382 157.665 58.8249C157.465 58.7049 157.319 58.5282 157.225 58.2949C157.139 58.0615 157.095 57.7715 157.095 57.4249V54.7249H156.325C156.259 54.7249 156.225 54.6915 156.225 54.6249V54.0949C156.225 54.0282 156.259 53.9949 156.325 53.9949H157.115L157.225 52.7949C157.232 52.7282 157.269 52.6949 157.335 52.6949H157.835C157.902 52.6949 157.935 52.7282 157.935 52.7949L157.945 53.9949H159.435C159.502 53.9949 159.535 54.0282 159.535 54.0949V54.6249C159.535 54.6915 159.502 54.7249 159.435 54.7249H157.945V57.4049C157.945 57.7182 157.999 57.9382 158.105 58.0649C158.219 58.1915 158.409 58.2549 158.675 58.2549C158.809 58.2549 158.942 58.2415 159.075 58.2149C159.209 58.1815 159.325 58.1415 159.425 58.0949C159.505 58.0615 159.545 58.0849 159.545 58.1649V58.7149C159.545 58.7682 159.519 58.8049 159.465 58.8249C159.345 58.8715 159.205 58.9115 159.045 58.9449C158.885 58.9782 158.699 58.9949 158.485 58.9949ZM162.356 58.9949C161.716 58.9949 161.223 58.8449 160.876 58.5449C160.536 58.2449 160.366 57.8015 160.366 57.2149V55.8149C160.366 55.1815 160.536 54.7015 160.876 54.3749C161.216 54.0415 161.709 53.8749 162.356 53.8749C163.003 53.8749 163.493 54.0382 163.826 54.3649C164.166 54.6849 164.336 55.1515 164.336 55.7649V56.5449C164.336 56.6115 164.303 56.6449 164.236 56.6449H161.216V56.9649C161.216 57.4115 161.309 57.7382 161.496 57.9449C161.683 58.1449 161.986 58.2449 162.406 58.2449C162.719 58.2449 162.959 58.1949 163.126 58.0949C163.299 57.9882 163.386 57.8349 163.386 57.6349C163.386 57.5615 163.423 57.5249 163.496 57.5249H164.146C164.199 57.5249 164.233 57.5549 164.246 57.6149C164.273 58.0415 164.116 58.3782 163.776 58.6249C163.436 58.8715 162.963 58.9949 162.356 58.9949ZM161.216 55.9149H163.486V55.8549C163.486 55.4349 163.393 55.1249 163.206 54.9249C163.019 54.7249 162.739 54.6249 162.366 54.6249C161.979 54.6249 161.689 54.7282 161.496 54.9349C161.309 55.1415 161.216 55.4515 161.216 55.8649V55.9149ZM167.262 58.9949C166.662 58.9949 166.212 58.8649 165.912 58.6049C165.612 58.3382 165.462 57.9415 165.462 57.4149C165.462 57.3549 165.495 57.3249 165.562 57.3249H166.222C166.282 57.3249 166.312 57.3515 166.312 57.4049C166.312 57.7049 166.385 57.9215 166.532 58.0549C166.685 58.1882 166.932 58.2549 167.272 58.2549C167.598 58.2549 167.845 58.2015 168.012 58.0949C168.178 57.9815 168.262 57.8215 168.262 57.6149C168.262 57.4615 168.215 57.3349 168.122 57.2349C168.028 57.1282 167.882 57.0315 167.682 56.9449L166.542 56.4749C166.175 56.3215 165.915 56.1482 165.762 55.9549C165.608 55.7615 165.532 55.5115 165.532 55.2049C165.532 54.7649 165.672 54.4349 165.952 54.2149C166.232 53.9882 166.648 53.8749 167.202 53.8749C167.768 53.8749 168.208 53.9949 168.522 54.2349C168.835 54.4682 168.992 54.8015 168.992 55.2349C168.992 55.2949 168.958 55.3249 168.892 55.3249H168.232C168.165 55.3249 168.132 55.2715 168.132 55.1649C168.132 54.9915 168.052 54.8582 167.892 54.7649C167.732 54.6649 167.512 54.6149 167.232 54.6149C166.945 54.6149 166.732 54.6649 166.592 54.7649C166.452 54.8582 166.382 55.0049 166.382 55.2049C166.382 55.3515 166.418 55.4615 166.492 55.5349C166.572 55.6082 166.728 55.6949 166.962 55.7949L168.102 56.2749C168.455 56.4215 168.712 56.5949 168.872 56.7949C169.032 56.9949 169.112 57.2515 169.112 57.5649C169.112 58.0249 168.952 58.3782 168.632 58.6249C168.312 58.8715 167.855 58.9949 167.262 58.9949Z" fill="#4182CE"/>
<mask id="path-15-inside-1_514_1729" fill="white">
<path d="M69.75 0.124878C79.1388 0.124878 86.75 4.04239 86.75 8.87488C86.75 13.7074 79.1388 17.6249 69.75 17.6249C67.6074 17.6249 65.558 17.4181 63.6699 17.0458C63.4962 17.3716 63.2276 17.6567 62.8633 17.8553L58.6816 20.1356C57.3298 20.8724 55.6868 19.8691 55.7246 18.33L55.833 13.8973C53.8916 12.4753 52.75 10.7449 52.75 8.87488C52.75 4.04239 60.3612 0.124878 69.75 0.124878Z"/>
</mask>
<path d="M69.75 0.124878C79.1388 0.124878 86.75 4.04239 86.75 8.87488C86.75 13.7074 79.1388 17.6249 69.75 17.6249C67.6074 17.6249 65.558 17.4181 63.6699 17.0458C63.4962 17.3716 63.2276 17.6567 62.8633 17.8553L58.6816 20.1356C57.3298 20.8724 55.6868 19.8691 55.7246 18.33L55.833 13.8973C53.8916 12.4753 52.75 10.7449 52.75 8.87488C52.75 4.04239 60.3612 0.124878 69.75 0.124878Z" fill="white"/>
<path d="M63.6699 17.0458L63.9118 15.8194L63.0027 15.6401L62.5668 16.4578L63.6699 17.0458ZM62.8633 17.8553L62.2651 16.7578L62.2648 16.7579L62.8633 17.8553ZM58.6816 20.1356L59.2798 21.2332L59.2801 21.2331L58.6816 20.1356ZM55.7246 18.33L56.9742 18.3607L56.9742 18.3605L55.7246 18.33ZM55.833 13.8973L57.0826 13.9279L57.0986 13.2749L56.5716 12.8889L55.833 13.8973ZM69.75 0.124878V1.37488C74.2873 1.37488 78.3331 2.32416 81.1988 3.79911C84.1292 5.30744 85.5 7.16816 85.5 8.87488H86.75H88C88 5.74911 85.5652 3.23482 82.3429 1.57627C79.0557 -0.115649 74.6015 -1.12512 69.75 -1.12512V0.124878ZM86.75 8.87488H85.5C85.5 10.5816 84.1292 12.4423 81.1988 13.9506C78.3331 15.4256 74.2873 16.3749 69.75 16.3749V17.6249V18.8749C74.6015 18.8749 79.0557 17.8654 82.3429 16.1735C85.5652 14.5149 88 12.0006 88 8.87488H86.75ZM69.75 17.6249V16.3749C67.687 16.3749 65.7186 16.1757 63.9118 15.8194L63.6699 17.0458L63.4281 18.2722C65.3974 18.6605 67.5279 18.8749 69.75 18.8749V17.6249ZM63.6699 17.0458L62.5668 16.4578C62.5045 16.5748 62.4084 16.6796 62.2651 16.7578L62.8633 17.8553L63.4615 18.9529C64.0469 18.6339 64.488 18.1685 64.773 17.6338L63.6699 17.0458ZM62.8633 17.8553L62.2648 16.7579L58.0832 19.0382L58.6816 20.1356L59.2801 21.2331L63.4617 18.9528L62.8633 17.8553ZM58.6816 20.1356L58.0834 19.0381C57.5766 19.3143 56.96 18.9379 56.9742 18.3607L55.7246 18.33L54.475 18.2992C54.4135 20.8002 57.083 22.4305 59.2798 21.2332L58.6816 20.1356ZM55.7246 18.33L56.9742 18.3605L57.0826 13.9279L55.833 13.8973L54.5834 13.8668L54.475 18.2994L55.7246 18.33ZM55.833 13.8973L56.5716 12.8889C54.8046 11.5946 54 10.1938 54 8.87488H52.75H51.5C51.5 11.2959 52.9786 13.356 55.0944 14.9058L55.833 13.8973ZM52.75 8.87488H54C54 7.16816 55.3708 5.30744 58.3012 3.79911C61.1669 2.32416 65.2127 1.37488 69.75 1.37488V0.124878V-1.12512C64.8985 -1.12512 60.4443 -0.115649 57.1571 1.57627C53.9348 3.23482 51.5 5.74911 51.5 8.87488H52.75Z" fill="black" mask="url(#path-15-inside-1_514_1729)"/>
<path d="M68.1954 10.3849C68.122 10.3849 68.0854 10.3449 68.0854 10.2649V9.87488C68.0854 9.64821 68.142 9.45154 68.2554 9.28488C68.3687 9.11821 68.5054 8.96821 68.6654 8.83488C68.832 8.70154 68.9987 8.57488 69.1654 8.45488C69.332 8.32821 69.472 8.19821 69.5854 8.06488C69.6987 7.93154 69.7554 7.78154 69.7554 7.61488C69.7554 7.44154 69.692 7.31488 69.5654 7.23488C69.4387 7.14821 69.2487 7.10488 68.9954 7.10488C68.682 7.10488 68.4687 7.17488 68.3554 7.31488C68.2487 7.44821 68.1987 7.63821 68.2054 7.88488C68.2054 7.98488 68.1654 8.03488 68.0854 8.03488H67.0254C66.972 8.03488 66.9354 8.02154 66.9154 7.99488C66.902 7.96154 66.892 7.91821 66.8854 7.86488C66.8654 7.22488 67.0287 6.74821 67.3754 6.43488C67.722 6.11488 68.272 5.95488 69.0254 5.95488C69.752 5.95488 70.2887 6.08154 70.6354 6.33488C70.982 6.58154 71.1554 6.94821 71.1554 7.43488C71.1554 7.74154 71.0987 8.00821 70.9854 8.23488C70.872 8.46154 70.732 8.65488 70.5654 8.81488C70.4054 8.97488 70.2387 9.11821 70.0654 9.24488C69.8987 9.37154 69.7587 9.49488 69.6454 9.61488C69.532 9.73488 69.4754 9.86821 69.4754 10.0149L69.4654 10.2649C69.4654 10.3449 69.4287 10.3849 69.3554 10.3849H68.1954ZM68.8254 12.7449C68.552 12.7449 68.342 12.6815 68.1954 12.5549C68.0554 12.4282 67.9854 12.2415 67.9854 11.9949V11.8049C67.9854 11.5515 68.0554 11.3615 68.1954 11.2349C68.342 11.1082 68.552 11.0449 68.8254 11.0449C69.1054 11.0449 69.3154 11.1082 69.4554 11.2349C69.5954 11.3615 69.6654 11.5515 69.6654 11.8049V11.9949C69.6654 12.2415 69.5954 12.4282 69.4554 12.5549C69.3154 12.6815 69.1054 12.7449 68.8254 12.7449Z" fill="#684221"/>
<ellipse cx="28" cy="39.2499" rx="0.75" ry="0.375" fill="white"/>
<ellipse cx="51" cy="39.2499" rx="0.75" ry="0.375" fill="white"/>
<path d="M45.6592 57.2499C45.7178 57.4104 45.75 57.5775 45.75 57.7499C45.75 58.9234 44.3111 59.8747 42.5361 59.8749C41.575 59.8749 40.714 59.5933 40.125 59.1512C39.536 59.5933 38.675 59.8749 37.7139 59.8749C35.9389 59.8747 34.5 58.9234 34.5 57.7499C34.5 57.5776 34.5313 57.4103 34.5898 57.2499C34.93 58.1821 36.1994 58.8748 37.7139 58.8749C38.675 58.8749 39.536 58.5933 40.125 58.1512C40.714 58.5933 41.575 58.8749 42.5361 58.8749C44.0504 58.8748 45.3189 58.1819 45.6592 57.2499Z" fill="#806043"/>
<ellipse cx="52.75" cy="46.9999" rx="3.75" ry="1.625" fill="#FFA1E7" fill-opacity="0.22"/>
<ellipse cx="28" cy="46.9999" rx="3.75" ry="1.625" fill="#FFA1E7" fill-opacity="0.22"/>
<path d="M52.125 14.1249L48.25 17.7499H32.75L30.375 11.4999L36.125 14.1249L33.375 8.24988L40.5 13.3749L45.375 6.37488V14.1249H52.125Z" fill="#A36B3A"/>
<defs>
<linearGradient id="paint0_linear_514_1729" x1="39.8841" y1="16.3749" x2="39.8841" y2="65.0045" gradientUnits="userSpaceOnUse">
<stop stop-color="#A76D3B"/>
<stop offset="1" stop-color="#301E0F"/>
</linearGradient>
<linearGradient id="paint1_linear_514_1729" x1="39.884" y1="27.597" x2="39.884" y2="67.4978" gradientUnits="userSpaceOnUse">
<stop stop-color="#FFE2C8"/>
<stop offset="1" stop-color="#E4C6AA"/>
</linearGradient>
</defs>
</svg>
